<?xml version="1.0" standalone="no"?><!DOCTYPE svg PUBLIC "-//W3C//DTD SVG 1.1//EN" "http://www.w3.org/Graphics/SVG/1.1/DTD/svg11.dtd"><svg class="icon" width="200px" height="200.00px" viewBox="0 0 1024 1024" version="1.1" xmlns="http://www.w3.org/2000/svg"><path fill="#333333" d="M87.141174 825.530786l218.079854-125.988436 76.311013-117.725238c6.78759 18.615986 20.276812 34.199916 38.498826 43.085284l33.495882 16.314571-76.581166 118.114095c-3.988848 6.15928-9.356089 11.257391-15.691377 14.926968L133.519458 905.791761c-7.300266 4.229325-15.295358 6.217608-23.13593 6.217608-16.029068 0-31.594579-8.30413-40.197514-23.172769C57.390593 866.664625 64.999898 838.31495 87.141174 825.530786zM761.127476 327.078337c-59.703777 0-108.129696-48.435129-108.129696-108.187001 0-59.681264 48.425919-108.110253 108.129696-108.110253 59.727313 0 108.158349 48.430012 108.158349 108.110253C869.285824 278.643208 820.854788 327.078337 761.127476 327.078337zM709.397301 431.591669c17.450441-15.505136 26.892487-38.556131 25.65838-61.825091l50.161447 33.6811 93.600795-102.568027c17.245779-18.915815 46.562479-20.276812 65.487503-2.981914 18.904559 17.225313 20.23895 46.561455 2.986007 65.476247L826.772568 495.446999c-9.067516 9.927093-21.588691 15.092743-34.245965 15.092743-8.949836 0-17.941628-2.569522-25.829272-7.877411l-78.175477-52.508911L709.397301 431.591669zM613.283266 684.652222l-179.707918-87.522356c-13.903661-6.777357-23.502273-20.027126-25.617447-35.358299-2.104941-15.295358 3.563152-30.682813 15.122419-40.947598l159.187559-141.576459-94.956675-62.916958-138.910747 39.744189c-24.689309 6.931876-50.278103-7.213285-57.335846-31.806403-7.030114-24.622794 7.212262-50.269917 31.806403-57.33687l159.486364-45.585221c13.046131-3.748371 27.037796-1.574868 38.352493 5.907547L683.666266 335.248414c12.002358 7.93574 19.621896 20.999266 20.624736 35.368532 1.032516 14.328333-4.673439 28.330232-15.430434 37.899168L536.402271 544.079626l163.53354 79.664388c11.780301 5.734608 20.575618 16.181541 24.227798 28.773324 3.641947 12.571317 1.794879 26.1291-5.089925 37.252439L595.411223 890.01238c-8.767688 14.176884-23.947412 21.99699-39.48427 21.99699-8.31334 0-16.724917-2.238994-24.313755-6.91141-21.784142-13.462616-28.523637-42.026162-15.081487-63.788815L613.283266 684.652222z" /></svg>