<?xml version="1.0" standalone="no"?><!DOCTYPE svg PUBLIC "-//W3C//DTD SVG 1.1//EN" "http://www.w3.org/Graphics/SVG/1.1/DTD/svg11.dtd"><svg class="icon" width="200px" height="200.00px" viewBox="0 0 1024 1024" version="1.1" xmlns="http://www.w3.org/2000/svg"><path fill="#333333" d="M909.697209 834.184887c-110.550839 63.83998-196.394972 70.448492-255.17368 60.85602 105.031125-181.771927 58.453297-503.696894-6.801916-523.951193l0-41.872666c71.03894-41.029462 129.206734-74.624605 134.358057-77.567633C855.826278 209.063503 1185.928484 662.647045 909.697209 834.184887M647.720589 310.092477 647.720589 159.145603l-1.629103 0 0-5.865591c0-26.028816-26.272363-38.025035-52.302203-38.025035l-54.499242 0 82.400708-57.973366c19.959587-11.537777 45.458331-4.694929 56.966433 15.243169l72.994478 126.445854c11.545964 19.938098 4.703115 45.448098-15.254425 56.954153L647.720589 310.092477zM606.008582 199.551872l0 145.987932c0 23.035646-18.675338 41.712007-41.709961 41.712007L168.047856 387.251811c-23.035646 0-41.712007-18.675338-41.712007-41.712007L126.335848 199.551872c0-23.033599 18.675338-41.710984 41.712007-41.710984l396.251789 0C587.333244 157.840888 606.008582 176.518273 606.008582 199.551872M606.008582 406.353868c85.174891 0 144.236032 557.883003-180.732248 568.30947-258.981403 0-312.829821-152.933111-312.829821-152.933111S253.2207 687.903266 181.937191 613.177354c-13.889335 48.656163-32.994462 88.63469-85.132936 137.290853-86.913489 33.034371-97.342002-50.386574-95.591125-78.208223 38.228673-33.013905 86.874603-265.907139 145.977699-265.907139L606.008582 406.352845zM380.551714 742.504838l61.222363-28.717042 61.22134 28.717042-8.391111-67.087954 46.233997-49.348941-66.415642-12.758582-32.648584-59.21566-32.648584 59.21566-66.415642 12.758582 46.232974 49.348941L380.551714 742.504838z" /></svg>