<?xml version="1.0" standalone="no"?><!DOCTYPE svg PUBLIC "-//W3C//DTD SVG 1.1//EN" "http://www.w3.org/Graphics/SVG/1.1/DTD/svg11.dtd"><svg class="icon" width="200px" height="200.00px" viewBox="0 0 1024 1024" version="1.1" xmlns="http://www.w3.org/2000/svg"><path d="M695.771429 190.171429c-73.142857-396.8-722.285714-27.428571-606.171429 351.085714 114.285714 373.028571 453.485714 441.6 453.485714 441.6l315.428572-155.428572s109.714286-90.514286 89.6-381.257142c-21.028571-290.742857-231.314286-196.571429-277.942857-142.628572 30.171429-44.8 35.657143-59.428571 25.6-113.371428z" fill="#E96C6C" /><path d="M252.342857 493.714286s124.342857 186.514286 350.171429-8.228572c94.171429-81.371429 101.485714-248.685714 93.257143-250.514285-2.742857-0.914286-42.971429 95.085714-42.971429 95.085714s-115.2 235.885714-373.028571 166.4M692.114286 904.228571l-148.114286 63.085715s-340.114286-36.571429-442.514286-430.628572c-19.2-72.228571-5.485714 24.685714 160 184.685715 164.571429 160 430.628571 182.857143 430.628572 182.857142z" fill="#D26565" /><path d="M709.485714 187.428571c-35.657143-192.914286-209.371429-230.4-394.057143-124.342857-182.857143 105.142857-293.485714 302.628571-238.628571 481.828572 42.057143 136.228571 116.114286 243.2 213.028571 322.742857 54.857143 44.8 113.371429 78.628571 171.885715 102.4 21.028571 8.228571 39.314286 14.628571 56.685714 20.114286 6.4 1.828571 11.885714 2.742857 16.457143 4.571428 2.742857 0.914286 4.571429 0.914286 6.4 1.828572 2.742857 0.914286 6.4 0 9.142857-0.914286l315.428571-155.428572c0.914286-0.914286 1.828571-0.914286 2.742858-1.828571 3.657143-2.742857 9.142857-9.142857 16.457142-17.371429 10.971429-14.628571 22.857143-32 32.914286-54.857142 36.571429-76.8 54.857143-182.857143 44.8-320.914286-7.314286-102.4-38.4-167.314286-88.685714-196.571429-41.142857-23.771429-93.257143-21.942857-143.542857-0.914285-7.314286 2.742857-13.714286 6.4-20.114286 10.971428 2.742857-24.685714 2.742857-47.542857-0.914286-71.314286z m-46.628571 116.114286c-1.828571 2.742857-2.742857 5.485714-3.657143 8.228572 0 3.657143 1.828571 8.228571 4.571429 10.971428 5.485714 4.571429 14.628571 4.571429 19.2-0.914286 0.914286-1.828571 2.742857-3.657143 4.571428-5.485714 0.914286-0.914286 3.657143-4.571429 4.571429-6.4 4.571429-4.571429 7.314286-9.142857 10.971428-12.8 10.971429-11.885714 22.857143-20.114286 34.742857-25.6 42.971429-18.285714 85.942857-20.114286 118.857143-0.914286 41.142857 23.771429 68.571429 80.457143 74.971429 174.628572 9.142857 134.4-7.314286 234.971429-42.057143 307.2-9.142857 20.114286-20.114286 36.571429-30.171429 49.371428-3.657143 4.571429-6.4 8.228571-9.142857 10.971429l-1.828571 1.828571-309.028572 152.685715c-4.571429-0.914286-10.057143-2.742857-15.542857-4.571429-16.457143-4.571429-34.742857-10.971429-53.942857-19.2-56.685714-22.857143-112.457143-54.857143-165.485714-98.742857-93.257143-75.885714-163.657143-178.285714-203.885714-309.028571-50.285714-165.485714 53.028571-351.085714 225.828571-449.828572 170.057143-97.828571 322.742857-64 353.828571 106.057143 6.4 35.657143 0 72.228571-16.457142 107.885714l-5.485715 10.971429c-15.542857 28.342857-37.485714 55.771429-66.742857 81.371428-61.257143 54.857143-142.628571 96-208.457143 104.228572-67.657143 9.142857-119.771429-14.628571-158.171428-59.428572-11.885714-13.714286-21.028571-28.342857-28.342857-42.971428-2.742857-5.485714-4.571429-10.057143-6.4-13.714286-0.914286-2.742857-1.828571-3.657143-1.828572-4.571428-2.742857-7.314286-10.057143-10.971429-17.371428-8.228572s-10.971429 10.057143-8.228572 17.371429c1.828571 4.571429 4.571429 12.8 10.057143 22.857143 8.228571 16.457143 19.2 32.914286 32 48.457142 43.885714 51.2 104.228571 78.628571 181.942857 68.571429 72.228571-9.142857 159.085714-52.114286 224-110.628571 33.828571-30.171429 59.428571-63.085714 76.8-97.828572 9.142857-19.2 16.457143-38.4 20.114286-58.514286-8.228571 5.485714-16.457143 12.8-23.771429 21.028572-3.657143 4.571429-7.314286 8.228571-11.885714 13.714286-0.914286 1.828571-6.4 7.314286-5.485714 6.4-0.914286 0.914286-1.828571 1.828571-1.828572 2.742857l-1.828571 1.828571z" fill="#082534" /><path d="M542.171429 1007.542857c-6.4-12.8-1.828571-29.257143 11.885714-35.657143l304.457143-155.428571c12.8-6.4 29.257143-1.828571 35.657143 11.885714 6.4 12.8 1.828571 29.257143-11.885715 35.657143l-304.457143 155.428571c-12.8 7.314286-28.342857 1.828571-35.657142-11.885714z" fill="#082534" /><path d="M422.4 96.914286c-50.285714 23.771429-85.028571 61.257143-79.542857 72.228571s52.114286 1.828571 103.314286-21.942857c50.285714-23.771429 85.028571-53.028571 79.542857-64s-53.028571-10.057143-103.314286 13.714286z" fill="#FFFFFF" /></svg>