<?xml version="1.0" standalone="no"?><!DOCTYPE svg PUBLIC "-//W3C//DTD SVG 1.1//EN" "http://www.w3.org/Graphics/SVG/1.1/DTD/svg11.dtd"><svg class="icon" width="200px" height="200.00px" viewBox="0 0 1024 1024" version="1.1" xmlns="http://www.w3.org/2000/svg"><path fill="#333333" d="M766.783801 11.650341c-2.397606 0-2.873444 9.746992-5.849218 14.136975-3.167133 4.670369-9.500375 15.570627-1.584078 45.152363 1.584078 4.670369 0 17.125029-3.167133 31.138184-3.167133 14.012132-6.334265 43.594891-6.334265 65.392336s-15.836687 32.69668-22.171975 40.479947c-3.167133-10.898211-12.669554-28.025287-12.669554-29.581736 3.167133-4.670369 4.240581-9.238408 3.167133-15.568581-1.582031-9.341762-6.334265-28.027333-19.001773-34.253128-1.074472-8.439206-15.231913-23.305799-34.589796-23.308869-9.217942 0-19.61371 3.368724-30.342052 12.408611-33.255405 28.027333-6.334265 77.849042 36.425607 104.316857-2.007727 2.959402-3.37998 4.045129-5.729491 4.045129-1.354857 0-3.037173-0.36225-5.358031-0.932232-2.601244-0.639566-7.075139-3.119037-14.84715-3.119037-11.147898 0-29.077246 5.097088-57.998949 28.030403-17.420765 12.453636-52.260248 28.02324-61.762669 29.581736-9.502421 1.556449-25.339108 0-39.590694 4.670369-14.253632 4.670369-96.602152 37.367049-112.438838 43.594891-9.502421 1.556449-38.008662 3.112897-45.927005 4.670369-7.918343 1.556449-33.255405 3.112897-38.006616 3.112897-4.320399 0 3.140527 6.435573 11.670807 6.435573 0.854461 0 1.717108-0.064468 2.580778-0.206708 0.64673-0.105401 1.240247-0.153496 1.794879-0.153496 2.873444 0 4.634554 1.301645 6.67605 2.605338 2.041496 1.299599 4.363378 2.601244 8.358365 2.601244 2.558265 0 5.799076-0.532119 10.091846-1.939165 2.681062-0.87595 4.824889-1.227967 6.649444-1.227967 3.667529 0 6.030343 1.425466 8.828063 2.848884 2.796696 1.427512 6.028297 2.852978 11.434423 2.852978 5.539156 0 13.364379-1.497097 25.350364-6.030343 28.504194-6.228865 121.939213-21.796422 131.441635-23.352871 9.500375-1.558495 22.169929-12.456706 31.671327-14.013155 9.502421-1.556449 68.098981-23.352871 80.767512-28.025287 0.715291-0.233314 1.421372-0.345877 2.117221-0.345877 8.559956 0 15.660678 16.737196 20.053732 26.814716 4.751211 10.898211 20.587897 52.93563 9.500375 62.278415-3.399423 2.865257-10.228969 3.827165-18.794042 3.827165-8.718569 0-19.234063-0.994654-29.764907-1.991354-10.531867-0.9967-21.079084-1.991354-29.854958-1.991354-1.932002 0-3.777023 0.048095-5.516644 0.155543-1.457188 0.089028-3.27765 0.127913-5.425569 0.127913-6.169513 0-15.046694-0.314155-25.76992-0.626263-10.721179-0.314155-23.294542-0.62831-36.838-0.62831-50.392714 0-114.336048 4.336772-147.34279 29.15297-53.843302 40.479947 82.350566 37.367049 17.420765 49.821709-64.929802 12.456706-53.844326 12.456706-60.178591 14.013155-6.334265 1.556449-20.587897 0-42.759873 6.226818-22.169929 6.228865-49.091068 15.570627-68.094888 18.683525-3.799536 0.623193-7.03216 0.870834-9.831926 0.870834-11.20111 0-15.507182-3.983731-21.841447-3.983731-3.169179 0-9.123798-0.249687-17.154705-0.249687-12.048407 0-28.770254 0.559748-47.775096 3.362584-31.67235 4.670369-68.096934 32.694633-26.923186 45.152363 2.795673 0.822738 6.724145 1.162476 11.369955 1.162476 21.678742 0 58.96188-7.391341 69.396533-7.391341 12.669554 0 28.506241-12.45466 44.343951-12.45466 11.516288 0 65.75254-3.294023 100.56951-3.294023 13.06148 0 23.384593 0.463558 27.703969 1.737574 15.836687 4.670369 38.008662 10.896164 41.174772 34.252105 3.167133 23.352871-3.167133 48.26526 30.088272 57.607022 33.257451 9.341762 47.509037 10.898211 57.011458 32.69668 7.489578 17.178241 18.912745 33.392528 49.779753 33.392528 8.296967 0 17.995863-1.171686 29.404704-3.809769 9.382695-2.172479 16.795525-3.112897 22.689768-3.112897 27.91784 0 21.722744 21.12411 29.570479 32.694633 9.500375 14.013155 25.337061 10.898211 42.757826 21.796422 17.418718 10.898211 53.843302 34.253128 47.509037 52.936653-2.113127 6.226818-1.409093 8.30413 0.527003 8.30413 3.871167 0 12.669554-8.30413 13.726629-8.30413 1.582031 0-3.169179 38.921451 28.504194 80.959893 12.669554 20.239973 36.425607 77.849042 23.756053 88.747253-12.671601 10.898211-19.004843 24.910343 1.583055 34.252105 20.587897 9.341762 38.008662 10.898211 39.590694 21.796422 1.447978 9.962909 17.455557 17.324574 38.341237 17.324574 1.959631 0 3.963265-0.064468 6.000668-0.197498 23.75503-1.556449-7.918343-14.012132-17.420765-29.581736-9.500375-15.568581-20.587897-45.150316-26.921139-71.618131-6.334265-26.468838-25.339108-108.987227-19.002796-133.898593 6.334265-24.910343 11.085476-9.339716 22.169929-29.581736 11.086499-20.239973-10.075473-143.930063-11.085476-205.5157-1.583055-96.53052-31.67235-91.859128-26.921139-108.98518 9.728572-35.066657 14.251585-60.721967 23.75503-77.849042 9.502421-17.127076 21.905916-33.147958-1.584078-73.175603-23.75503-40.481993-17.418718-56.050574-11.085476-70.063729 6.710842-14.84408 17.045211-39.130206 15.836687-49.821709-1.583055-14.012132-9.500375-57.607022-6.334265-73.176626 3.167133-15.568581 9.500375-20.239973 4.751211-38.923498-1.526773-7.498788 4.294816-26.549679 0.478907-26.551726-0.144286 0-0.304945 0.027629-0.478907 0.084934-3.006474 0.985444-6.335289 1.556449-7.918343 14.012132-0.63445 4.982478-1.774413 6.974855-2.915399 6.974855-1.709945 0-3.419889-4.483104-3.419889-10.088776 0-9.341762 4.751211-17.127076-1.584078-20.239973C767.097956 11.692297 766.937297 11.650341 766.783801 11.650341" /></svg>