<?xml version="1.0" standalone="no"?><!DOCTYPE svg PUBLIC "-//W3C//DTD SVG 1.1//EN" "http://www.w3.org/Graphics/SVG/1.1/DTD/svg11.dtd"><svg class="icon" width="200px" height="200.00px" viewBox="0 0 1024 1024" version="1.1" xmlns="http://www.w3.org/2000/svg"><path fill="#333333" d="M840.111788 514.108426l-191.157995 0c-17.885873 29.057299-43.723156 59.700323-81.13579 87.986145l272.293585-44.3957L840.111588 514.108426 840.111788 514.108426zM464.102522 894.240697l42.3301 0 49.703101-283.692057c-32.594901 22.716598-64.219259 37.124829-93.336518 45.934856L464.102522 894.240697zM419.140807 282.670342c30.197926 0 54.689321-24.465812 54.689321-54.684724 0-30.202523-24.491395-54.681326-54.689321-54.681326s-54.693318 24.478803-54.693318 54.681326C364.447489 258.204529 388.942681 282.670342 419.140807 282.670342zM553.490717 598.535985c129.269955-92.594021 126.414891-216.188824 124.89692-237.160605l-131.738281 94.390803c-24.355487-25.498712-38.785703-68.420011-35.398-95.479465l117.322256-209.146199-35.63384-25.121368-134.118668 180.143862-279.212494 0.484671-1.376067 41.41632 194.655623 25.220301c3.644129 87.755302 32.615287 144.635137 49.934944 171.176542l-134.076296 96.045681C308.124276 648.676789 424.216165 691.140998 553.490717 598.535985z" /></svg>