<?xml version="1.0" standalone="no"?><!DOCTYPE svg PUBLIC "-//W3C//DTD SVG 1.1//EN" "http://www.w3.org/Graphics/SVG/1.1/DTD/svg11.dtd"><svg class="icon" width="200px" height="200.00px" viewBox="0 0 1024 1024" version="1.1" xmlns="http://www.w3.org/2000/svg"><path fill="#333333" d="M512 18.4832C239.445333 18.4832 18.4832 239.445333 18.4832 512 18.4832 784.554667 239.445333 1005.5168 512 1005.5168c272.554667 0 493.5168-220.945067 493.5168-493.5168C1005.5168 239.445333 784.554667 18.4832 512 18.4832zM512 974.216533C256.7168 974.216533 49.783467 767.2832 49.783467 512S256.7168 49.783467 512 49.783467 974.216533 256.7168 974.216533 512 767.2832 974.216533 512 974.216533zM278.920533 207.547733c0 0 142.045867 104.174933 224.187733 218.197333 11.997867 16.64 20.48 28.7744 21.282133 36.4544 5.6832 54.050133 0 426.5984 0 446.5152l-36.983467 0c0 0 8.3968-361.181867-2.9696-423.748267-9.250133-51.2-178.7392-209.1008-230.0416-254.651733C248.695467 224.6144 278.920533 207.547733 278.920533 207.547733zM736.631467 413.371733 519.2704 484.949333 506.862933 452.846933 727.637333 385.3312ZM633.1904 581.205333 665.821867 426.308267 692.206933 419.464533 655.9232 588.288ZM784.657067 379.716267m-66.850133 0a3.917 3.917 0 1 0 133.700267 0 3.917 3.917 0 1 0-133.700267 0ZM680.977067 410.299733c0 0-99.549867-88.8832-98.133333-104.533333 1.416533-15.650133 17.783467-68.266667 17.783467-68.266667s-17.783467-10.103467-20.0704-9.284267c-5.666133 2.065067-25.719467 67.2256-25.105067 84.6336 0.597333 17.1008 81.442133 102.9632 93.525333 106.5984C656.810667 421.6832 680.977067 410.299733 680.977067 410.299733z" /></svg>