<?xml version="1.0" standalone="no"?><!DOCTYPE svg PUBLIC "-//W3C//DTD SVG 1.1//EN" "http://www.w3.org/Graphics/SVG/1.1/DTD/svg11.dtd"><svg class="icon" width="200px" height="200.00px" viewBox="0 0 1024 1024" version="1.1" xmlns="http://www.w3.org/2000/svg"><path fill="#333333" d="M510.046619 599.259956 510.046619 540.52472l-17.393122-10.70346-48.620466 28.123341L510.046619 599.259956zM483.26121 518.636145l0.240828 0.695725 0.802759-0.535173L483.26121 518.636145zM267.559737 558.800878l165.582523 0 1.016829-0.642208-12.014634-7.492422 49.128881-28.364168-84.02216-332.181875L241.92495 239.249085l25.634786 293.06073L267.559737 558.800878zM513.284415 396.88429l-58.708477-228.706177-54.2933 21.915334 82.175813 325.438696L513.284415 396.88429zM499.771297 513.98014l15.332706 9.445803 0-21.326644 37.033971 21.433678 84.396781-333.386014L581.251385 171.522943l-85.01223 344.517613L499.771297 513.98014zM608.010034 551.683077l0 7.117801 150.356852 0 0-29.835894 25.608028-289.68914L648.576147 193.465036l-84.236229 332.984635L608.010034 551.683077zM515.719452 691.30971l70.696352-40.780182 0-87.447267-70.696352-40.753423L515.719452 691.30971zM706.588899 647.826905l49.476743 30.31755-4.709522-24.002509L751.35612 647.826905 706.588899 647.826905zM765.083307 573.384342l-165.983903 0 0 10.70346 91.514581 56.193164 74.469322 0L765.083307 573.384342zM424.499216 573.384342 256.267586 573.384342l0 66.896624 60.04641 0L424.499216 573.384342zM599.099404 650.583046l185.812062 116.212815 27.989547-44.874255-213.80161-131.090624L599.099404 650.583046zM480.558587 696.634682l-37.301557-21.513954-47.121982 186.64158 59.885858 0 44.125013-174.626947L480.558587 696.634682zM596.155953 664.684854l-81.025191 46.827637 0-4.415177-39.067628 154.664994 314.65496 0-16.884708-85.922024L596.155953 664.684854zM800.324449 248.132957l-25.581269 259.77297 96.49169 196.033866 133.73973-68.582419L800.324449 248.132957zM223.622034 248.132957 18.945124 635.384133l133.73973 68.582419 96.49169-196.033866L223.622034 248.132957zM443.176753 568.487509l-248.025922 153.380579 27.989547 44.847497 270.155326-166.84018L443.176753 568.487509zM264.857113 669.876032l35.642521-22.049127-32.913139 0 0 8.509251L264.857113 669.876032zM480.826173 681.087906l22.156162-10.70346 0-66.57552-75.004495 46.720602L480.826173 681.087906zM419.522107 661.39354l-172.753841 106.740253-18.570503 93.628515 162.07714 0 47.978259-189.585032L419.522107 661.39354z" /></svg>