<?xml version="1.0" standalone="no"?><!DOCTYPE svg PUBLIC "-//W3C//DTD SVG 1.1//EN" "http://www.w3.org/Graphics/SVG/1.1/DTD/svg11.dtd"><svg class="icon" width="200px" height="200.00px" viewBox="0 0 1024 1024" version="1.1" xmlns="http://www.w3.org/2000/svg"><path fill="#333333" d="M619.444789 129.95703m-101.509743 0a99.2 99.2 0 1 0 203.019486 0 99.2 99.2 0 1 0-203.019486 0ZM804.249825 529.856301c-0.511642-15.349256-2.660538-34.996303-6.242031-58.634156-5.935045-39.191766-14.018987-75.722994-14.325972-77.257919-0.511642-2.251224-1.330269-4.40012-2.251224-6.446687-0.61397-1.22794-14.121315-29.879884-32.745078-60.27141-37.963825-62.010992-62.624963-74.392725-77.974218-78.383532-4.707105-1.22794-9.41421-1.330269-13.81433-0.409313-11.358449-7.060658-100.077146-8.902568-138.245628-40.317378-1.841911-0.61397-3.683821-0.716299-5.423404-0.61397-13.81433-5.321075-29.675227 0.204657-37.349855 12.995703-2.660538 2.148896-16.372539 11.358449-65.797142 20.977316-30.800839 6.037374-59.04347 8.902568-59.350455 8.902568-2.762866 0.306985-5.423404 0.920955-7.981613 1.944239-49.833916 19.135405-110.923953 39.908064-129.854702 43.182572-7.265314-1.841911-15.349256-1.023284-22.409913 2.865194-14.837614 8.18627-20.158689 26.912361-11.972419 41.749975 3.683821 6.651344 12.58639 17.088838 31.824123 17.088838 2.046567 0 4.195463-0.102328 6.344359-0.306985 5.730389-0.61397 12.893375-2.046567 21.898271-4.40012 13.302688-3.376836 31.210153-8.902568 53.006096-16.372539 30.084541-10.232837 59.145798-21.181973 69.378635-25.070451 10.335165-1.22794 37.963825-4.604777 67.229739-10.64215 22.0006-4.502448 40.010393-9.516538 54.541021-15.04227-26.093734 80.839412-58.531828 151.95763-94.960727 206.089337-0.511642 1.432597-0.818627 2.762866-0.920955 4.195463-4.809433 5.218747-7.879285 12.177076-8.18627 19.851704-0.306985 10.949136-10.64215 41.954632-28.958929 77.974218-18.726092 36.940542-34.484661 56.689917-41.340662 62.829619-12.381733 1.330269-23.330868 10.232837-26.605376 23.023883-4.195463 16.474868 5.730389 33.154392 22.205256 37.349855 2.762866 0.716299 6.037374 1.22794 9.721195 1.22794 8.288598 0 18.521435-2.558209 29.777556-11.153792 25.377436-19.033077 50.24323-63.852903 62.727291-88.923354 8.493255-16.986509 26.707705-55.768962 32.233437-86.365144 25.479764 12.893375 47.582692 23.126212 66.001799 30.289198C458.686919 632.900969 402.815629 677.618467 402.201659 678.130109c-7.162986 5.62806-11.256121 13.916658-11.665434 22.716898-2.967523 11.563106-20.977316 58.838813-47.582692 115.221745-29.163585 61.908664-48.912961 92.91416-58.838813 105.091236-6.651344-0.102328-13.302688 1.841911-19.033077 6.037374-13.609673 10.130509-16.474868 29.368242-6.344359 42.977915 7.469971 10.130509 18.521435 15.451584 30.186869 15.451584 5.832717 0 11.870091-1.432597 17.702808-4.195463 10.539822-5.01409 24.661137-15.860897 49.219946-57.201559 16.679524-28.140302 33.25672-62.010992 44.308184-85.546517 13.098031-28.140302 26.298391-58.531828 36.121915-83.49995 6.446687-16.577196 10.539822-28.037973 12.893375-36.326571 21.181973-18.419107 74.904367-68.764665 117.677626-141.315479 1.023284-1.739582 1.841911-3.479165 2.455881-5.321075 5.525732 0.102328 10.539822-3.172179 12.484061-8.595583 22.409913-35.200959 13.609673-127.910463 65.89947-258.481463 2.251224 1.330269 4.707105 2.353553 7.265314 3.069851 1.330269 0.61397 15.349256 8.083941 42.568602 53.006096 12.893375 21.284301 23.22854 41.852303 26.912361 49.424603 1.841911 8.902568 6.958329 33.563705 11.358449 60.578395 8.288598 51.164185 7.367643 69.992605 6.651344 75.416009-7.367643 11.460777-6.446687 26.810033 3.172179 37.247527 6.139702 6.651344 14.4283 10.02818 22.716898 10.02818 7.367643 0 14.837614-2.660538 20.772659-8.18627C803.635855 572.527231 804.966124 551.038273 804.249825 529.856301zM561.526931 908.266613m-82.578995 0a80.7 80.7 0 1 0 165.157989 0 80.7 80.7 0 1 0-165.157989 0Z" /></svg>