<?xml version="1.0" standalone="no"?><!DOCTYPE svg PUBLIC "-//W3C//DTD SVG 1.1//EN" "http://www.w3.org/Graphics/SVG/1.1/DTD/svg11.dtd"><svg class="icon" width="200px" height="200.00px" viewBox="0 0 1024 1024" version="1.1" xmlns="http://www.w3.org/2000/svg"><path fill="#333333" d="M512 64C264.96 64 64 264.96 64 512c0 246.976 200.96 448 448 448s448-201.024 448-448C960 264.96 759.04 64 512 64zM512 939.136c-235.584 0-427.136-191.616-427.136-427.136 0-235.584 191.552-427.136 427.136-427.136S939.136 276.416 939.136 512C939.136 747.52 747.584 939.136 512 939.136zM609.088 433.856c-1.6-3.712 0.512-7.36 0-10.048-0.512-2.624-3.2-7.36-3.2-7.36L601.088 413.76c0 0-8.704-0.832-9.984-2.624C582.144 398.72 570.304 385.344 569.344 369.856c16.704-18.944 22.272-84.736-10.24-89.536 8.832-17.856 22.016-69.184-5.12-87.04-24.768-16.32-64.576-2.944-58.88 38.4C490.88 242.688 475.648 242.816 477.248 259.84c12.16 0.256 12.16-11.776 23.04-12.8C507.392 254.336 505.6 269.504 502.784 280.32 502.08 283.328 487.36 290.816 484.48 292.992 478.272 297.664 472.128 302.528 466.304 307.904c-11.84 10.752-22.208 22.4-31.872 35.072C421.12 360.448 408.768 378.816 400.704 399.36 387.648 432.64 424.192 429.888 441.408 449.216c-30.144 49.792 10.624 93.952 15.36 145.856-26.368-20.16-74.112-5.568-104.96 0-28.608-70.976-81.6 46.208-61.44 69.12 22.784-7.04 27.968-39.68 58.88-30.72 37.696-28.032 85.312 12.672 130.496 10.24 10.432 1.024 7.872-10.88 15.296-12.8 12.544 40.32-8.576 94.72 15.424 135.616-6.016 13.696-12.096 27.2-12.864 46.08 24.64 12.032 73.344 43.264 97.28 10.24-16.256-16.96-44.544-21.952-46.016-53.76-9.344-1.472-11.776 0.192-15.36-10.24-6.272-41.536 12.096-82.112 13.12-118.528C547.392 617.344 548.992 599.936 541.184 576.64c-9.472-28.16-7.616-36.16 3.392-60.032C554.496 494.72 549.568 479.36 549.504 456.448c-0.064-14.656 1.792-30.464 9.6-43.072C561.472 409.472 572.736 431.104 573.696 433.28c3.584 7.168 7.872 15.744 16.64 16.896C597.696 451.072 613.184 443.584 609.088 433.856z" /></svg>