<?xml version="1.0" standalone="no"?><!DOCTYPE svg PUBLIC "-//W3C//DTD SVG 1.1//EN" "http://www.w3.org/Graphics/SVG/1.1/DTD/svg11.dtd"><svg class="icon" width="200px" height="200.00px" viewBox="0 0 1024 1024" version="1.1" xmlns="http://www.w3.org/2000/svg"><path fill="#333333" d="M519.1 605.7c25.1 13.4 54.2 29.1 82.2 45.7 15.5-13.4 29.1-28.7 40.1-45.7H519.1z"  /><path fill="#333333" d="M803.2 64H220.8c-24.7 0-44.8 20.1-44.8 44.8v806.4c0 24.7 20.1 44.8 44.8 44.8h582.4c24.7 0 44.8-20.1 44.8-44.8V108.8c0-24.7-20.1-44.8-44.8-44.8zM674.7 741.7c-17.5-13-42.6-29.1-70.8-46.1-32.7 21.1-70.8 35.6-112.9 45.7-4-10.5-13-25.5-20.6-34 35.6-6.5 68.3-18.1 96.8-33.6-25.5-15.5-51.7-30.7-74.8-43.7l21.1-24.2H496v-33.2h166.7l6.9-0.9 26.4 9.4c-13.4 37.2-34 66.8-60.3 90.3 24.6 14.6 47.3 28.7 63.2 39.6l-24.2 30.7z m-13-221.1h30.9c6.9 0 19-0.4 24.6-2 0.4 9.6 1.6 23.1 2.9 32.7-5.6 2-16.6 2.5-26.7 2.5h-36.7c-35.2 0-42.1-14.1-42.1-48.6v-39.6H556v2c0 33.6-10.1 73.7-54.2 99.9-5.6-7.6-19-20.6-28-27.1v8.1H371.4c-2 14.6-4 29.6-6.5 43.2h110s-0.4 12.1-1.6 18.1c-6 68.8-11.6 98.8-24.2 111.8-9.6 9.6-20.2 12.5-35.6 13.4-13.4 1.6-39.2 0.9-66.3 0-0.9-12.1-6.5-28.7-14.1-39.6 26.7 2.5 52.6 2.9 62.7 2.9 8.5 0 13.4-0.4 18.1-4.5 6.5-6 11.6-25.1 15.5-67.2h-110c6.5-30.7 14.1-76.8 18.1-113.8h94.3v-45.2h-77.5v-6.9c-17 8.5-34.7 16.1-51.7 22.2-5.6-10.1-16.6-26.7-25.1-34.7 31.6-9.6 63.6-24.6 91.8-43.2-14.1-12.5-34.7-27.1-51.7-37.6l26.7-25.1c18.6 10.5 41.7 26 56.7 38.5 15.5-13 28.7-28 39.6-43.7H332.2v-37.2h133.1l7.6-1.6 29.6 14.1c-21.5 49.3-57.1 88.3-99.2 118.5H474v106c37.2-20.6 42.6-46.6 42.6-70.3V429H621c-48.2-34.7-85.3-80.2-110.4-135.5l37.2-11c9 19 20.2 37.2 33.2 54.2 20.2-15.5 43.2-36.7 56.7-52.6l33.6 24.2c-21.1 19.5-46.1 39.2-67.2 53.8 10.1 10.1 20.6 18.6 32 27.1 21.5-16.1 47.3-39.2 62.7-55.1l34 23.1c-20.2 18.1-44.6 37.2-65.6 51.7 24.2 13 50.6 24.2 79.3 31.6-9 8.5-21.5 25.5-28 36.7-23.1-6.9-45.2-16.6-65.2-28v56.7c-0.1 11.4 1.5 14.7 8.4 14.7z"  /></svg>