<?xml version="1.0" standalone="no"?><!DOCTYPE svg PUBLIC "-//W3C//DTD SVG 1.1//EN" "http://www.w3.org/Graphics/SVG/1.1/DTD/svg11.dtd"><svg class="icon" width="200px" height="200.00px" viewBox="0 0 1024 1024" version="1.1" xmlns="http://www.w3.org/2000/svg"><path fill="#333333" d="M466.055 143.157a84.3 84.3 0 1 0 172.525 0 84.3 84.3 0 1 0-172.525 0z m445.64 766.747c-1.33-13.303-5.833-29.778-13.508-50.346-13.098-34.996-34.587-78.486-55.36-120.543-2.148-4.297-4.297-8.697-6.446-12.995l-16.168-196.061c0-0.41-0.102-0.717-0.102-1.126 4.298-1.842 6.958-3.99 7.367-6.651 2.763-16.782-36.02-166.08-61.806-236.072-15.963-43.387-81.965-89.333-155.232-48.299-12.586 7.06-13.2 31.824-6.958 44.922 0.818 1.74 1.74 3.684 2.762 5.628-2.558 16.68-7.367 46.764-13.814 78.282-1.432 7.265-2.967 14.019-4.298 20.363-28.447 4.912-58.43 2.967-84.728-5.628-4.809-1.535-9.107-3.275-12.995-5.014l0.409-1.842c0.819-3.889-2.354-7.675-6.856-8.391l-14.735-2.456c-2.354-2.047-3.889-3.786-4.4-4.912-6.754-15.554-24.764-22.717-40.318-15.963-2.865 1.228-5.423 2.865-7.674 4.707-6.856-19.545-29.164-36.736-58.225-42.568-38.271-7.675-73.574 7.47-78.895 33.768s21.386 54.03 59.76 61.704c28.549 5.73 55.461-1.228 69.583-16.168 10.335 22.615 36.94 42.569 73.37 54.848 23.535 7.982 49.014 11.972 74.801 11.972 4.4 0 8.8-0.102 13.2-0.409-2.455 6.447-4.502 10.95-6.037 14.02-25.582 4.092-72.755-0.922-108.366-4.708-23.842-2.558-43.49-4.502-59.862-5.219 3.377-3.684 5.526-8.595 5.526-14.019 0-11.358-9.21-20.568-20.568-20.568s-20.568 9.21-20.568 20.568c0 5.628 2.251 10.847 6.037 14.53-8.288 0.922-15.451 2.661-21.59 5.424-15.452 6.959-22.308 25.173-15.35 40.625 6.856 15.349 24.763 22.205 40.113 15.554 1.125-0.307 7.367-1.638 26.503-0.614 15.247 0.818 33.666 2.762 53.21 4.81 30.597 3.274 61.807 6.548 89.435 6.548 20.568 0 39.09-1.842 54.03-6.754 4.605-1.637 8.8-4.297 12.177-7.777 11.972-12.381 28.242-38.782 47.583-133.64 0.102-0.717 0.306-1.433 0.409-2.15 15.758 29.164 32.13 59.249 45.434 84.422 0.818 26.4 1.535 75.416 1.535 75.416h0.102L596.83 659.71c-4.195 4.912-6.651 11.051-7.163 17.498-4.195 55.462-8.698 96.291-14.223 128.422-7.266 42.467-14.633 58.43-17.806 63.649-13.098 3.376-22.819 15.144-23.023 29.265-0.307 16.987 13.2 30.904 30.186 31.21h0.717c14.223 0 33.973-6.446 48.913-36.326 6.958-14.121 12.893-33.052 18.01-58.123 7.06-34.587 12.688-80.327 17.702-143.566l110.515-130.98c0.102-0.205 0.307-0.41 0.41-0.512L775.7 737.07a29.713 29.713 0 0 0 3.07 11.052c2.968 6.037 5.935 12.177 9.005 18.316 16.986 34.28 34.485 69.788 46.764 99.157 12.893 31.108 15.656 45.433 16.168 51.164-8.186 9.823-9.619 24.252-2.456 35.815 5.833 9.414 15.86 14.53 26.094 14.53 5.628 0 11.154-1.534 16.168-4.809 9.516-5.935 16.27-15.042 19.442-26.503 2.149-7.675 2.763-16.168 1.74-25.89zM380.713 655.31H95.626v60.68l286.417-42.67c11.051-1.638 9.823-18.01-1.33-18.01z m108.57-81.351H95.626v61.295h393.657c7.368 0 13.405-6.038 13.405-13.405v-34.485c0-7.265-6.037-13.405-13.405-13.405z" /></svg>