<?xml version="1.0" standalone="no"?><!DOCTYPE svg PUBLIC "-//W3C//DTD SVG 1.1//EN" "http://www.w3.org/Graphics/SVG/1.1/DTD/svg11.dtd"><svg class="icon" width="200px" height="200.00px" viewBox="0 0 1024 1024" version="1.1" xmlns="http://www.w3.org/2000/svg"><path fill="#333333" d="M87.141 825.53l218.08-125.988 76.311-117.725c6.788 18.616 20.277 34.2 38.499 43.085l33.496 16.315-76.581 118.114a46.341 46.341 0 0 1-15.692 14.927L133.52 905.792a46.062 46.062 0 0 1-23.135 6.217c-16.03 0-31.595-8.304-40.198-23.172C57.391 866.665 65 838.315 87.141 825.53z m673.986-498.452c-59.703 0-108.13-48.435-108.13-108.187 0-59.68 48.427-108.11 108.13-108.11 59.728 0 108.159 48.43 108.159 108.11 0 59.752-48.431 108.187-108.159 108.187z m-51.73 104.514c17.45-15.505 26.893-38.556 25.659-61.825l50.161 33.68 93.6-102.567c17.247-18.916 46.563-20.277 65.488-2.982 18.905 17.225 20.24 46.561 2.986 65.476L826.773 495.447c-9.068 9.927-21.59 15.093-34.246 15.093-8.95 0-17.942-2.57-25.83-7.878l-78.175-52.509 20.875-18.561z m-96.114 253.06L433.575 597.13a46.35 46.35 0 0 1-10.495-76.306l159.188-141.576-94.957-62.917-138.91 39.744c-24.69 6.932-50.279-7.214-57.336-31.807-7.03-24.622 7.212-50.27 31.806-57.337l159.486-45.585c13.047-3.748 27.038-1.575 38.353 5.908l162.956 107.994a46.24 46.24 0 0 1 20.625 35.369c1.033 14.328-4.673 28.33-15.43 37.9L536.402 544.08l163.534 79.664a46.344 46.344 0 0 1 19.138 66.026L595.41 890.012c-8.767 14.177-23.947 21.997-39.484 21.997-8.313 0-16.725-2.239-24.314-6.911-21.784-13.463-28.523-42.026-15.081-63.789l96.751-156.657z" /></svg>