<?xml version="1.0" standalone="no"?><!DOCTYPE svg PUBLIC "-//W3C//DTD SVG 1.1//EN" "http://www.w3.org/Graphics/SVG/1.1/DTD/svg11.dtd"><svg class="icon" width="200px" height="200.00px" viewBox="0 0 1024 1024" version="1.1" xmlns="http://www.w3.org/2000/svg"><path fill="#333333" d="M705.077926 174.840122C683.368159 21.674767 496.120171 0 496.120171 0c28.776691 152.298364-251.3903 200.235849-308.943682 327.127486-57.554382 126.906637 63.154322 236.908455 63.154322 236.908455l167.032206-8.481909c86.280073-152.248365 316.4926-177.639092 287.715909-380.71391z m-431.141369 331.036444c-7.980914-9.653896-17.936807-23.190751-26.498715-39.344578-22.123762-41.744552-24.888733-79.657144-8.449909-115.903755 17.170816-37.864593 74.714197-73.318212 130.361599-107.604844 45.58151-28.085698 92.714004-57.123386 127.936626-93.052 24.069741-24.552736 40.660563-50.593457 49.705466-77.917163 7.375921 2.872969 15.032839 6.234933 22.704756 10.159891 47.006495 24.044742 72.868217 56.954388 79.057151 100.610919 5.864937 41.377556-1.555983 73.212214-24.051742 103.223891-23.045752 30.73667-59.969356 57.533382-99.062936 85.906077-47.851486 34.727627-101.215913 73.457211-140.338492 128.268623l-111.363804 5.652939z m380.172916-88.777047c-71.292234 34.311631-88.925045 53.301427-113.949775 83.909099-7.995914 9.779895-17.057817 20.867776-30.545672 34.585629l40.566564 39.881571c15.313835-15.578833 25.687724-28.267696 34.021634-38.461587 20.109784-24.598736 31.189665-38.14959 94.573984-68.656262 88.345051-42.509543 110.306815-93.131 97.921949-225.687576l-56.643392 5.290943c11.280879 120.722703-7.989914 141.251483-65.945292 169.138183z m142.51347 9.502898c-24.947732 52.283438-85.090086 78.269159-113.991776 90.757025-10.023892 4.328953-15.550833 6.714928-19.831787 9.997893l25.955721 33.865636c-0.221998 0.169998-0.480995 0.369996-0.802991 0.559994 1.501984-0.89299 7.102924-3.313964 11.599875-5.259943 33.672638-14.548844 103.735886-44.821519 135.576544-111.548802l-38.505586-18.371803z m-60.927346 173.568136H288.764398c-25.840722 0-30.457673 13.895851-7.147923 45.525511 28.81669 39.07958 54.741412 108.648833 76.27618 172.613146 1.407985 4.178955 2.75897 8.621907 4.066957 13.072859 13.255858-16.309825 29.024688-33.649639 45.112515-45.433512-15.043838-43.886529-32.258653-89.067043-52.063441-128.888615h290.953875c-23.647746 26.739713-43.464533 56.868389-59.080365 89.291041l-0.077-0.082c-8.114913 7.730917-47.885486 28.051699-105.598865 50.485458-42.091548 16.352824-85.213085 81.700122-95.062979 97.326955a401.753684 401.753684 0 0 0-8.001914 11.875872c3.68396 12.728863 3.032967-0.992989-4.060956 60.699348-4.570951 39.679574 52.757433 57.332384 111.952797 57.332384 64.591306 0 131.406588-21.005774 122.511684-57.334384-13.866851-56.635392-4.837948-200.10785 110.411814-301.926757 24.433738-21.579768 44.916517-64.556307 16.73982-64.556306zM486.033279 966.989612c-25.866722 0-44.031527-3.953958-53.824422-7.568918a1843.056202 1843.056202 0 0 1 3.119967-24.353739c0.727992-5.446941 1.361985-10.25989 1.674982-14.90784 17.123816-26.162719 47.129494-63.512318 64.807303-70.382243 13.214858-5.136945 34.650628-13.735852 56.393395-23.579747-11.13888 45.450512-14.306846 92.677004-9.067903 131.531587-12.941861 4.507952-35.190622 9.260901-63.103322 9.2609z" /></svg>