<?xml version="1.0" standalone="no"?><!DOCTYPE svg PUBLIC "-//W3C//DTD SVG 1.1//EN" "http://www.w3.org/Graphics/SVG/1.1/DTD/svg11.dtd"><svg class="icon" width="200px" height="200.00px" viewBox="0 0 1024 1024" version="1.1" xmlns="http://www.w3.org/2000/svg"><path fill="#333333" d="M517.935 129.957a99.2 99.2 0 1 0 203.02 0 99.2 99.2 0 1 0-203.02 0z m286.315 399.9c-0.512-15.35-2.66-34.997-6.242-58.635-5.935-39.192-14.02-75.723-14.326-77.258-0.512-2.251-1.33-4.4-2.251-6.446-0.614-1.228-14.122-29.88-32.745-60.272-37.964-62.01-62.625-74.393-77.975-78.383-4.707-1.228-9.414-1.33-13.814-0.41-11.358-7.06-100.077-8.902-138.246-40.317-1.842-0.614-3.683-0.716-5.423-0.614-13.814-5.321-29.675 0.205-37.35 12.996-2.66 2.149-16.372 11.358-65.797 20.977-30.8 6.037-59.044 8.903-59.35 8.903-2.763 0.307-5.424 0.92-7.982 1.944-49.834 19.135-110.924 39.908-129.855 43.182-7.265-1.842-15.35-1.023-22.41 2.866-14.837 8.186-20.158 26.912-11.972 41.75 3.684 6.65 12.586 17.088 31.824 17.088 2.047 0 4.195-0.102 6.344-0.307 5.73-0.614 12.894-2.046 21.899-4.4 13.302-3.377 31.21-8.902 53.006-16.372 30.084-10.233 59.145-21.182 69.378-25.07 10.335-1.229 37.964-4.606 67.23-10.643 22-4.502 40.01-9.516 54.541-15.042-26.094 80.84-58.532 151.957-94.96 206.09-0.512 1.432-0.82 2.762-0.922 4.195a31.09 31.09 0 0 0-8.186 19.851c-0.307 10.95-10.642 41.955-28.959 77.975-18.726 36.94-34.484 56.69-41.34 62.83-12.382 1.33-23.331 10.232-26.606 23.023-4.195 16.475 5.73 33.154 22.205 37.35a38.744 38.744 0 0 0 9.722 1.228c8.288 0 18.521-2.558 29.777-11.154 25.378-19.033 50.243-63.853 62.727-88.923 8.494-16.987 26.708-55.77 32.234-86.365 25.48 12.893 47.583 23.126 66.002 30.289C458.687 632.9 402.816 677.618 402.202 678.13c-7.163 5.628-11.256 13.917-11.666 22.717-2.967 11.563-20.977 58.839-47.582 115.222-29.164 61.908-48.913 92.914-58.84 105.091-6.65-0.102-13.302 1.842-19.032 6.037-13.61 10.13-16.475 29.369-6.345 42.978 7.47 10.13 18.522 15.452 30.187 15.452 5.833 0 11.87-1.433 17.703-4.196 10.54-5.014 24.661-15.86 49.22-57.201 16.68-28.14 33.257-62.011 44.308-85.547 13.098-28.14 26.298-58.532 36.122-83.5 6.447-16.577 10.54-28.038 12.893-36.326 21.182-18.42 74.905-68.765 117.678-141.316 1.023-1.74 1.842-3.479 2.456-5.32 5.526 0.102 10.54-3.173 12.484-8.596 22.41-35.201 13.61-127.91 65.9-258.482 2.25 1.33 4.707 2.354 7.265 3.07 1.33 0.614 15.349 8.084 42.568 53.006 12.894 21.284 23.229 41.852 26.913 49.425 1.842 8.902 6.958 33.563 11.358 60.578 8.289 51.164 7.368 69.993 6.651 75.416-7.367 11.46-6.446 26.81 3.173 37.248 6.14 6.651 14.428 10.028 22.717 10.028 7.367 0 14.837-2.66 20.772-8.186 14.53-13.2 15.861-34.69 15.145-55.872z m-325.303 378.41a80.7 80.7 0 1 0 165.159 0 80.7 80.7 0 1 0-165.158 0z" /></svg>