<?xml version="1.0" standalone="no"?><!DOCTYPE svg PUBLIC "-//W3C//DTD SVG 1.1//EN" "http://www.w3.org/Graphics/SVG/1.1/DTD/svg11.dtd"><svg class="icon" width="200px" height="200.00px" viewBox="0 0 1024 1024" version="1.1" xmlns="http://www.w3.org/2000/svg"><path fill="#333333" d="M399.848 111.129a77.3 77.3 0 1 0 158.2 0 77.3 77.3 0 1 0-158.2 0z m384.14 179.074c-2.25-10.744-9.925-19.442-20.26-22.921-51.676-17.396-102.84-48.606-141.623-73.881-12.381-7.982-28.447-6.038-38.475 3.99-35.406 7.266-92.914 24.764-125.045 39.192-11.359-4.093-24.457-1.228-33.052 8.289-34.894 38.373-61.295 74.29-84.524 106.012-31.517 42.876-56.383 76.849-87.695 96.803-14.224 9.107-18.42 28.038-9.312 42.364 5.833 9.107 15.759 14.12 25.89 14.12 5.627 0 11.358-1.534 16.576-4.706 40.932-26.196 70.198-66.104 104.068-112.254 15.35-20.875 32.029-43.695 51.471-67.435 5.117 13.712 13.2 28.754 25.787 44.41 42.262 52.802 48.401 105.91 51.062 134.46L409.16 642.93c-2.456 3.172-4.195 6.754-5.219 10.642-19.544 73.063-28.242 135.585-34.484 181.122-3.48 25.684-7.777 56.894-12.382 68.764-12.382 4.298-21.08 16.27-20.568 30.085 0.716 16.577 14.326 29.573 30.698 29.573 0.307 0 0.717 0 1.126 0.102 13.712-0.512 26.298-6.958 35.2-18.215 5.834-7.265 10.234-16.474 13.815-28.856 5.321-18.112 8.698-42.364 12.894-72.96 5.832-42.773 13.916-100.896 31.414-167.921l110.003-144.692c2.559 0.102 5.22 0.102 7.88 0.102L513.535 714.66c-4.298 12.075-0.716 25.48 9.005 33.769 5.73 4.911 12.79 7.367 19.954 7.367 5.014 0 10.13-1.228 14.735-3.786 23.536-12.893 46.764-39.806 69.276-65.797 9.62-11.256 23.229-26.912 32.132-34.996 8.083 2.046 16.986 0.818 24.558-4.093 14.224-9.415 18.112-28.448 8.8-42.569-7.162-10.847-18.316-17.498-30.8-18.317-15.247-1.023-28.857 6.345-43.183 19.033l30.29-84.42c1.432-3.991 1.944-8.085 1.739-12.075 16.475-17.294 5.423-16.885 5.423-106.217 0-36.94-10.949-87.593-21.59-129.548 28.549 16.782 60.373 33.564 93.425 46.355 5.833 28.959 9.823 52.187 12.382 70.606 4.4 32.03 2.967 41.239 2.66 42.467-4.81 16.168 4.298 33.154 20.466 38.066a29.82 29.82 0 0 0 8.902 1.33c13.098 0 25.276-8.493 29.369-21.693 7.879-25.787-0.717-80.328-17.09-159.94zM204.197 604.556a79.7 79.7 0 1 0 163.112 0 79.7 79.7 0 1 0-163.112 0z" /></svg>