<?xml version="1.0" standalone="no"?><!DOCTYPE svg PUBLIC "-//W3C//DTD SVG 1.1//EN" "http://www.w3.org/Graphics/SVG/1.1/DTD/svg11.dtd"><svg class="icon" width="200px" height="200.00px" viewBox="0 0 1024 1024" version="1.1" xmlns="http://www.w3.org/2000/svg"><path fill="#333333" d="M646.787 93.671c-230.196-74.311-477.95 52.485-552.26 282.673-74.33 230.214 52.494 477.948 282.671 552.278 230.206 74.311 477.949-52.486 552.27-282.682C1003.808 415.745 876.984 168 646.789 93.67z m-52.971 223.59l127.552-41.679-0.145-82.72c85.37 56.182 143.76 143.956 163.972 241.997l-75.426-29.508-85.09 103.776-93.85-5.484-67.365-92.352 30.352-94.03z m-61.601-186.417l-49.076 67.815 79.069 108.407-29.617 91.696-110.21 36.035-78.163-50.296-7.584-133.931-80.737-21.289c74.437-67.382 173.797-103.856 276.318-98.437zM205.762 588.725l-46.257 66.736c-32.694-79.66-38.817-170.648-11.003-258.87l43.968 53.822a320.59 320.59 0 0 0-4.658 79.993 323.343 323.343 0 0 0 2.316 22.393c0.107 0.763 0.933 2.754 2.764 2.62 1.857-0.152 2.639-2.072 2.603-2.719-0.181-7.359-0.145-14.7 0.215-22.078 0.998-24.06 5.045-48.185 11.703-71.995l118.828-46.17 76.879 49.472 0.197 112.868-69.035 52.555-128.52-38.627z m189.09 285.24c-42.073-13.58-79.885-34.16-113.217-59.502l66.126-23.12a321.578 321.578 0 0 0 73.433 31.384 331.034 331.034 0 0 0 21.844 5.432c0.773 0.142 2.928 0.033 3.412-1.716 0.503-1.822-1.078-3.15-1.67-3.383a316.62 316.62 0 0 1-20.696-7.648c-23.496-9.62-45.862-22.472-66.934-37.892l-2.764-123.726 68.056-51.767 110.642 35.72 25.076 82.173-80.792 107.126 45.306 64.78c-42.246 1.238-85.36-4.147-127.822-17.86z m320.539-40.673l1.31-72.931c13.193-10.896 25.768-22.403 36.941-35.12a315.422 315.422 0 0 0 14.253-17.447c0.485-0.6 1.275-2.62-0.09-3.814-1.419-1.213-3.321-0.35-3.761 0.09-5.089 5.294-10.312 10.464-15.787 15.428-12.574 11.496-26.421 21.71-40.925 31.188L589.96 710.228l-26.028-85.28 63.84-88.205 94.944 5.555 72.41 112.984 77.084-20.138c-29.268 85.046-85.79 153.407-156.818 198.148z" /></svg>