<?xml version="1.0" standalone="no"?><!DOCTYPE svg PUBLIC "-//W3C//DTD SVG 1.1//EN" "http://www.w3.org/Graphics/SVG/1.1/DTD/svg11.dtd"><svg class="icon" width="200px" height="200.00px" viewBox="0 0 1024 1024" version="1.1" xmlns="http://www.w3.org/2000/svg"><path fill="#333333" d="M219.443 274.956a77.3 77.3 0 1 0 158.2 0 77.3 77.3 0 1 0-158.2 0zM119.98 547.252c28.959 0 59.555-15.554 93.937-32.95 41.648-21.08 88.821-45.024 133.948-40.726 2.15 0.204 4.196 0.204 6.242-0.103 20.364 22.206 44.206 45.946 66.002 62.216 94.756-10.642 192.275-12.996 290.92 0.819-8.494-24.764-82.989-96.7-143.567-122.897-43.49-18.93-97.11-46.354-132.72-69.276 2.149-2.66 3.99-5.73 5.117-9.21 0.92-1.432 8.186-10.335 43.796-25.07 29.47-12.177 72.449-26.094 131.185-42.364 11.46 15.145 29.47 38.27 49.322 61.704 65.388 77.156 92.607 87.798 112.152 87.798 16.987 0 30.699-13.712 30.699-30.699 0-16.065-12.28-29.266-28.038-30.494-3.889-1.842-23.536-12.995-72.858-71.936-29.47-35.201-54.234-69.277-54.439-69.584-7.47-10.233-20.568-14.94-32.847-11.563-166.181 45.025-223.792 72.244-237.095 112.254-0.921 2.866-1.433 5.73-1.535 8.596-17.805 26.912-47.48 78.281-69.993 89.742-46.047 6.447-88.411 27.833-124.022 45.945-17.088 8.698-33.256 16.885-46.764 21.796-14.428 5.321-20.465 4.81-22.41 4.298-16.474-4.093-33.052 5.935-37.145 22.41s5.935 33.052 22.41 37.145c5.833 1.535 11.768 2.15 17.703 2.15z m678.028 41.34c-48.913 0.103-95.473 16.169-133.743 45.64-37.964-29.164-84.319-44.923-133.027-44.923h-0.614c-49.016 0.102-95.575 16.168-133.846 45.74-37.964-29.265-84.216-45.024-133.027-45.024h-0.614c-58.634 0.205-113.789 23.127-155.436 64.774-11.973 11.973-11.973 31.415 0 43.387 5.935 6.038 13.814 9.005 21.693 9.005s15.759-2.967 21.694-9.005c30.084-30.084 69.992-46.661 112.254-46.764h0.41c42.056 0 81.657 16.373 111.333 46.048a30.668 30.668 0 0 0 21.693 9.005h0.103c8.084 0 15.963-3.274 21.693-9.005 30.085-30.084 69.993-46.662 112.254-46.764h0.41c42.057 0 81.658 16.373 111.333 46.048 11.972 11.972 31.415 11.972 43.387 0 30.085-30.085 69.993-46.662 112.254-46.764h0.41c42.057 0 81.658 16.372 111.333 46.048 11.972 11.972 31.415 11.972 43.387 0s11.973-31.415 0-43.388c-41.34-41.34-96.188-64.057-154.72-64.057h-0.614z m0.307 120.953h-0.614c-48.913 0.102-95.473 16.168-133.743 45.638-38.169-29.266-84.626-45.126-133.641-44.922-49.016 0.103-95.575 16.168-133.846 45.741-37.964-29.266-84.216-45.024-133.027-45.024h-0.614c-58.634 0.204-113.789 23.126-155.436 64.773-11.973 11.973-11.973 31.415 0 43.388 5.935 6.037 13.814 9.005 21.693 9.005 7.88 0 15.759-2.968 21.694-9.005 30.084-30.085 69.89-46.662 112.254-46.764h0.41c42.056 0 81.657 16.372 111.333 46.047a30.668 30.668 0 0 0 21.693 9.005h0.103c8.084 0 15.963-3.274 21.693-9.005 30.085-30.084 69.993-46.661 112.254-46.764h0.41c42.057 0 81.658 16.373 111.333 46.048 11.972 11.972 31.415 11.972 43.387 0 30.085-30.085 69.993-46.662 112.254-46.764h0.41c42.057 0 81.658 16.372 111.333 46.048 11.972 11.972 31.415 11.972 43.387 0 11.973-11.973 11.973-31.415 0-43.388-41.34-41.34-96.188-64.057-154.72-64.057z" /></svg>