<?xml version="1.0" standalone="no"?><!DOCTYPE svg PUBLIC "-//W3C//DTD SVG 1.1//EN" "http://www.w3.org/Graphics/SVG/1.1/DTD/svg11.dtd"><svg class="icon" width="200px" height="200.00px" viewBox="0 0 1024 1024" version="1.1" xmlns="http://www.w3.org/2000/svg"><path fill="#333333" d="M963.85 483.073c-34.17 17.494-78.227 38.342-134.301 63.151-67.73 29.963-134.207 48.867-198.287 59.373 40.91 141.662 173.548 210.066 203.226 223.802 80.557-81.423 130.305-193.387 130.305-316.98-0.001-9.859-0.32-19.644-0.943-29.346z m-651.876 68.028a779.982 779.982 0 0 0 78.335 14.459c-18.915-216.185 48.75-399.686 99.507-503.203-127.95 6.788-241.743 66.93-319.53 158.594 68.542 67.265 161.883 187.586 141.688 330.15z m-55.588-22.326c9.567-117.194-57.979-209.598-117.01-266.909-36.415 54.352-61.305 117.07-71.209 184.66 37.28 24.784 101.483 61.573 187.59 88.97 0.229-2.229 0.445-4.465 0.629-6.72z m363.876 16.613a315.2 315.2 0 0 0 1.838 16.894c217.772-33.972 317.223-142.483 329.833-157.2-19.91-81.495-61.977-154.3-119.458-211.671-74.648 59.267-224.74 198.537-212.213 351.977z m-190.836-28.63a927.062 927.062 0 0 0 3.64 53.257 788.356 788.356 0 0 0 93.143 1.59 888.03 888.03 0 0 0 44.933-3.014C553.35 384.737 718.464 221.443 792.6 158.039 723.702 103.814 638.6 69.27 545.754 62.822c-44.608 71.828-125.082 233.44-116.328 453.936z m224.064 232.17c-39.351-45.597-62.917-91.474-74.584-136.52-48.62 4.713-95.605 4.806-140.424 1.504 34.913 232.87 150.821 329.992 150.821 329.992s0.807 4.882 1.88 12.635c68.86-11.874 132.377-39.349 186.76-78.686-29.112-24.379-69.312-65.034-124.453-128.925zM395.342 609.644c-32.226-4.003-63.155-9.658-92.572-16.461-13.321 44.869-38.534 91.54-79.612 139.133-21.682 25.126-41.04 46.638-58.338 65.001 82.65 101.2 208.405 165.814 349.26 165.814 1.264 0 2.521-0.028 3.782-0.038-17.473-35.295-38.657-82.058-64.288-143.024-30.28-72.017-48.682-142.616-58.232-210.425zM63.45 503.708a456.8 456.8 0 0 0-0.083 8.712c0 88.893 25.738 171.77 70.16 241.598 45.782-38.326 94.645-95.705 114.616-175.189-75.802-22.323-138.927-50.94-184.693-75.12z" /></svg>