<?xml version="1.0" standalone="no"?><!DOCTYPE svg PUBLIC "-//W3C//DTD SVG 1.1//EN" "http://www.w3.org/Graphics/SVG/1.1/DTD/svg11.dtd"><svg class="icon" width="200px" height="200.00px" viewBox="0 0 1024 1024" version="1.1" xmlns="http://www.w3.org/2000/svg"><path fill="#333333" d="M843.264 426.717a14.645 14.645 0 0 0-2.131-1.038L753.91 390.56 716.1 269.398c-7.038-21.533-27.447-29.506-42.2-33.623a16.45 16.45 0 0 0-3.555-0.575l-194.886-10.19c-32.443-7.053-62.884 5.065-77.262 30.08-10.91 18.973-10.853 41.828 0.1 61.289l47.714 107.978-89.47 54.609c-13.63 7.513-23.56 19.89-28.01 34.832-4.46 15.082-2.792 31.03 4.707 44.848 10.334 19.03 30.184 30.86 51.83 30.86 9.758 0 19.46-2.475 28.052-7.169l157.276-85.295c13.66-7.397 24.024-20.208 28.427-35.119 4.405-14.94 2.778-30.715-4.577-44.418l-23.922-50.893 50.606-4.002 35.292 77.608c4.792 13.155 14.379 24.439 27.074 31.867 0.575 0.316 1.18 0.634 1.785 0.892l110.598 47.526c6.477 3.37 16.38 5.383 26.844 5.383 21.559 0 38.932-8.606 47.668-23.576 11.833-20.294 8.075-36.76 2.851-46.979-5.524-10.796-15.27-20.15-29.777-28.614m-24.153-75.537c3.714 0 7.47-0.286 11.17-0.862 40.676-6.103 68.798-44.189 62.682-84.863-5.454-36.215-37.149-63.503-73.707-63.503-3.729 0-7.5 0.258-11.183 0.835-40.691 6.102-68.8 44.187-62.669 84.891 5.454 36.184 37.148 63.502 73.707 63.502m-114.9 421.954l-46.133 14.653c-12.65 4-34.384 1.352-45.668-5.528L152.257 501.821c-7.73-4.721-17.791-2.275-22.483 5.441-4.707 7.714-2.26 17.79 5.455 22.481l460.153 280.468c12.954 7.888 31.032 12.206 48.087 12.206 8.694 0 17.129-1.093 24.498-3.455l46.13-14.622c8.623-2.736 13.386-11.948 10.65-20.554-2.733-8.608-11.974-13.358-20.537-10.652" /></svg>