<?xml version="1.0" standalone="no"?><!DOCTYPE svg PUBLIC "-//W3C//DTD SVG 1.1//EN" "http://www.w3.org/Graphics/SVG/1.1/DTD/svg11.dtd"><svg class="icon" width="200px" height="193.94px" viewBox="0 0 1056 1024" version="1.1" xmlns="http://www.w3.org/2000/svg"><path fill="#333333" d="M713.696 844.576C445.888 999.2 142.816 975.68 36.768 792s25.12-457.952 292.96-612.576C597.568 24.8 900.608 48.288 1006.688 232c106.048 183.648-25.12 457.92-292.992 612.576zM80.32 551.424C55.264 626.816 56.928 700.608 92 761.408c35.104 60.768 98.144 99.104 176 115.072L80.32 551.424z m574.368-408.352c-92.8 6.08-195.168 36.672-293.152 93.216-99.68 57.6-178.464 132.544-230.112 211.392l252 436.48c94.112-5.312 198.4-36.032 298.144-93.6 97.952-56.576 175.616-129.952 227.328-207.296L654.688 143.072z m307.136 335.104c26.048-76.384 24.8-151.232-10.688-212.768-35.552-61.568-99.744-100.032-178.944-115.648l189.632 328.416zM550.56 601.952l-25.952 15.008-31.04-53.696-0.128 0.064-29.312 16.928 31.008 53.696-25.984 15.008-31.008-53.696-0.128 0.064-29.312 16.928 31.008 53.696-25.984 15.008-31.008-53.728-0.128 0.096-55.424 32-16-27.712 55.552-32.096-32.384-56.096 25.984-15.008 32.416 56.096 29.44-16.992-32.416-56.16 25.984-14.976 32.416 56.096 29.44-16.992-32.384-56.128 25.984-14.976 32.416 56.096 29.44-16.992-32.384-56.128 25.984-14.976 32.384 56.096 29.44-16.992-32.384-56.096 25.952-15.008 32.448 56.096 29.44-16.992-32.448-56.128 25.984-14.976 32.384 56.096 57.888-33.376 16 27.712-57.888 33.408 31.008 53.696-25.952 15.008-31.008-53.696-29.44 16.992 31.008 53.696-25.984 15.008-31.008-53.696-0.128 0.064-29.312 16.928 31.008 53.696-25.984 15.008-31.008-53.696-0.128 0.064-29.312 16.928 30.944 53.728z" /></svg>