<?xml version="1.0" standalone="no"?><!DOCTYPE svg PUBLIC "-//W3C//DTD SVG 1.1//EN" "http://www.w3.org/Graphics/SVG/1.1/DTD/svg11.dtd"><svg class="icon" width="200px" height="200.00px" viewBox="0 0 1024 1024" version="1.1" xmlns="http://www.w3.org/2000/svg"><path fill="#333333" d="M252 0h520v240H252zM252 80h520v80H252zM251.872 0.76l-5.29 3.94c-32.798 44.398-78.88 106.626-119.042 160.31l217.75 332.228 181.72-81.954L251.872 0.76zM210.974 52.84a39983.924 39983.924 0 0 1-41.67 56.158l236.56 360.924 60.574-27.316L210.974 52.84zM773.27 0.76l8.736 3.94c32.796 44.398 78.88 106.626 119.042 160.31l-217.75 332.228-181.72-81.954L773.27 0.76zM817.614 52.84c13.336 18.002 27.47 37.06 41.672 56.158L622.722 469.922l-60.572-27.316L817.614 52.84zM817.614 52.84c13.336 18.002 27.47 37.06 41.672 56.158L622.722 469.922l-60.572-27.316L817.614 52.84zM739.834 410.98l5.832-8.898c-49.452-44.05-111.542-74.202-180.166-84.324l-8.426 12.856c69.27 8.492 132.246 37.33 182.76 80.366zM686.054 373.294l6.628-10.116a346.32 346.32 0 0 0-59.838-28.436l-7.458 11.382a346.016 346.016 0 0 1 60.668 27.17zM288.754 410.98c50.356-42.902 113.092-71.698 182.104-80.292l-8.514-12.826c-68.33 10.228-130.15 40.328-179.422 84.218l5.832 8.9zM342.532 373.294a346.09 346.09 0 0 1 60.668-27.172l-7.458-11.38a346.18 346.18 0 0 0-59.838 28.438l6.628 10.114zM166.294 676a348 348 0 1 0 696 0 348 348 0 1 0-696 0zM238.214 676a276.08 276.08 0 1 0 552.16 0 276.08 276.08 0 1 0-552.16 0zM514.294 412.73c150.334 0 272.592 120.158 275.996 269.674 0.048-2.13 0.082-4.264 0.082-6.404 0-152.474-123.604-276.08-276.078-276.08-152.476 0-276.08 123.606-276.08 276.08 0 2.14 0.032 4.274 0.082 6.404C241.7 532.888 363.96 412.73 514.294 412.73zM745.666 402.082l-5.832 8.898c73.272 62.426 120.33 154.704 122.372 258.02 0.044-2.33 0.088-4.66 0.088-7-0.002-103.362-45.08-196.18-116.628-259.918z m-462.744 0C211.374 465.82 166.294 558.638 166.294 662c0 2.34 0.042 4.67 0.088 7 2.04-103.316 49.1-195.594 122.372-258.02l-5.832-8.898zM514.294 314c-17.654 0-35 1.326-51.95 3.864l8.514 12.826a351.596 351.596 0 0 1 86.216-0.074l8.426-12.856a350.576 350.576 0 0 0-51.206-3.76zM389.916 856v-66.938c5.244-4.94 19.064-16.734 41.46-35.328 86.868-69.406 129.622-117.14 128.328-143.172-2.652-26.032-17.122-40.268-43.434-42.766-26.344 2.498-40.814 19.232-43.436 50.204h-76.996c0-61.968 40.132-94.828 120.432-98.546 76.316 3.718 116.48 34.718 120.43 92.968 0 38.438-38.192 88.03-114.508 148.75-22.396 16.126-40.812 31.61-55.28 46.484h171.76V856H389.916zM389.916 844.274v-66.938c5.244-4.94 19.064-16.734 41.46-35.328 86.868-69.406 129.622-117.14 128.328-143.172-2.652-26.032-17.122-40.268-43.434-42.766-26.344 2.498-40.814 19.232-43.436 50.204h-76.996c0-61.968 40.132-94.828 120.432-98.546 76.316 3.718 116.48 34.718 120.43 92.968 0 38.438-38.192 88.03-114.508 148.75-22.396 16.126-40.812 31.61-55.28 46.484h171.76v48.344H389.916z" /></svg>