<?xml version="1.0" standalone="no"?><!DOCTYPE svg PUBLIC "-//W3C//DTD SVG 1.1//EN" "http://www.w3.org/Graphics/SVG/1.1/DTD/svg11.dtd"><svg class="icon" width="200px" height="200.00px" viewBox="0 0 1024 1024" version="1.1" xmlns="http://www.w3.org/2000/svg"><path fill="#333333" d="M144.948 228.602a102.3 102.3 0 1 0 209.364 0 102.3 102.3 0 1 0-209.364 0z m711.49-174.88c-2.15-16.884-17.499-28.754-34.28-26.707-22.001 2.66-45.537 22-113.176 120.03-37.452 54.337-82.681 124.637-127.501 195.448l-104.273-18.317-28.038-29.88c3.889 0.307 7.88 0.512 11.87 0.512 27.63 0 58.225-7.163 90.05-21.284 44-19.443 85.853-50.653 106.523-79.407 28.755-39.908 9.21-65.183 2.558-71.937-11.87-12.075-31.312-12.177-43.387-0.307-9.21 9.005-11.46 22.308-6.958 33.461-7.572 12.28-36.531 41.136-83.398 62.011-38.475 17.09-72.96 20.875-94.653 10.233-15.247-7.47-33.564-1.125-41.034 14.122-0.819 1.637-1.433 3.274-1.944 5.014l-0.103 0.102-72.755 94.654c-12.484-1.024-24.968 5.73-30.494 17.907-43.285 95.063-49.22 180.507-49.425 184.089a30.997 30.997 0 0 0 8.494 23.229c5.73 6.037 13.712 9.414 22.103 9.414h0.716c3.786-0.103 92.812-2.354 167.41-20.978 16.372-4.093 26.4-20.772 22.307-37.247-4.093-16.373-20.773-26.4-37.248-22.308-40.215 10.028-86.672 14.94-117.882 17.191 4.4-25.275 12.79-61.908 28.447-102.02l170.275 113.686c2.762 1.842 7.163 0.716 9.925-2.456-2.353 82.477-6.14 190.535-6.344 198.62-0.307 5.013-3.377 50.345-7.982 98.746-8.084 84.217-14.12 108.059-16.167 114.301-7.982 10.745-8.289 25.89 0.204 37.043 6.038 7.88 15.247 12.075 24.457 12.075 6.549 0 13.098-2.047 18.623-6.345 11.461-8.8 17.09-23.535 23.127-60.578 3.274-20.159 6.651-47.173 9.926-80.328 5.525-55.871 9.21-110.924 9.21-111.435v-0.921c0-1.535 5.422-156.87 7.469-241.188 0-1.842-0.102-3.684-0.41-5.424l18.624-47.48c6.447-2.149 12.178-6.447 16.27-12.587 49.528-78.383 101.51-160.143 144.284-222.973 22.103-32.438 40.01-57.202 54.643-75.62 17.191-21.694 25.377-28.755 28.14-30.802 14.122-4.195 23.638-18.214 21.796-33.359z" /></svg>