<?xml version="1.0" standalone="no"?><!DOCTYPE svg PUBLIC "-//W3C//DTD SVG 1.1//EN" "http://www.w3.org/Graphics/SVG/1.1/DTD/svg11.dtd"><svg class="icon" width="200px" height="200.00px" viewBox="0 0 1024 1024" version="1.1" xmlns="http://www.w3.org/2000/svg"><path fill="#333333" d="M202.406 206.4c-169.031 169.04-169.023 443.074 0 612.116 169.024 169.018 443.146 169.018 612.179 0 169.024-169.041 169.024-443.074 0-612.116-169.033-169.024-443.155-169.024-612.179 0z m300.598 635.684c-9.096-1.345-15.138-2.246-18.894 1.503-1.212 1.222-3.096 3.983-1.915 8.549 1.407 5.372 6.347 10.769 13.925 15.193 7.447 4.371 18.382 7.802 30.54 8.528 0.759 3.75 1.414 7.503 2.086 11.27-102.917 5.504-207.61-30.538-286.02-108.932C168.44 703.918 131.988 606.04 133.019 508.48c10.404 1.38 20.697 3.007 30.862 5.06-2.857 4.937-5.958 9.378-8.625 13.127-5.455 7.68-9.056 12.724-7.06 17.872 0.712 1.856 2.445 4.282 6.564 5.183 8.14 1.822 20.052-3.608 30.353-13.908 4.455-4.477 8.219-9.554 11.346-14.95 18.064 5.024 35.488 11.428 52.557 18.49-1.972 2.265-3.92 4.387-5.723 6.193l-9.382 9.076c-3.685 3.661-7.197 7.661-6.294 12.386 0.354 1.91 1.623 4.582 5.454 6.245 10.31 4.493 29.265-2.848 43.154-16.774 1.132-1.112 1.968-2.406 3.012-3.59 16.699 8.35 32.702 17.85 48.153 28.096a188.731 188.731 0 0 1-12.836 9.058c-4.336 2.78-7.763 4.972-10.029 7.237-2.38 2.371-3.455 4.921-3.22 7.555 0.173 1.734 1.034 4.317 4.141 6.423 9.47 6.564 31.507 2.795 49.306-10.935 14.734 11.361 28.641 23.69 41.876 36.696-5.1 2.583-10.152 4.635-14.447 6.333-6.148 2.425-10.602 4.177-13.208 6.778-3.578 3.573-3.445 8.525 0.288 12.26 3.874 3.982 10.831 6.21 19.607 6.281 8.613 0.052 19.755-2.407 30.61-7.803 12.372 13.996 23.785 28.806 34.427 44.198-5.551 1.575-10.912 2.62-15.467 3.467-7.665 1.434-12.752 2.372-15.704 5.327-2.292 2.281-3.64 6.387-0.637 10.882 3.04 4.653 9.444 8.173 18.003 9.944 8.488 1.716 19.963 1.396 31.738-1.86 9.497 16.068 17.923 32.769 25.46 49.967-5.83 0.496-11.382 0.496-16.064 0.478-8.933-0.07-14.323-0.123-17.702 3.273-1.148 1.15-3.596 4.387-1.451 9.553 2.11 5.15 7.732 9.821 15.835 13.148 8.033 3.327 19.428 5.236 31.67 4.23 3.53 9.944 6.425 20.117 9.282 30.343-5.797-0.321-11.246-1.047-15.864-1.735z m271.268-63.891C716.334 836.12 644.014 870.778 568.71 882.88a486.978 486.978 0 0 0-3.095-16.226c6.033-3.573 10.881-7.554 14.314-10.984 11.12-11.091 17.056-24.397 14.781-33.031-1.08-4.122-3.564-5.766-5.457-6.404-5.237-1.789-10.156 2.032-17.606 7.837-3.927 3.044-8.567 6.634-13.893 9.926a498.806 498.806 0 0 0-11.209-35.21c2.07-1.664 4.211-3.166 6.123-5.06 13.91-13.907 21.068-32.2 16.689-42.517-1.637-3.875-4.275-5.15-6.198-5.52-4.83-0.938-8.882 2.635-13.323 7.06l-6.795 6.918c-2.547 2.53-5.59 5.307-8.855 8.05-8.458-19.34-18.04-38.077-28.76-56.106 15.33-17.941 20.046-41.492 13.376-51.363-2.087-3.133-4.654-4-6.414-4.192-2.664-0.249-5.256 0.847-7.67 3.253-2.23 2.248-4.423 5.592-7.2 9.82-2.797 4.247-6.322 9.185-10.335 14.085-11.912-17.286-24.815-33.829-38.752-49.523 11.876-20.773 11.85-44.605 3.405-53.08-1.936-1.928-4.068-2.92-6.365-2.901-1.508 0-3.786 0.442-5.953 2.618-2.583 2.566-4.375 6.972-6.856 13.058-1.916 4.725-4.264 10.332-7.37 16.03-14.995-14.79-30.873-28.68-47.66-41.544 4.242-12.634 4.729-25.213 2.994-34.344-1.623-8.67-5.077-15.145-9.692-18.276-4.547-3.096-8.647-1.734-10.952 0.583-2.955 2.938-3.94 7.945-5.453 15.606-0.996 4.971-2.186 10.915-4.132 17.022-17.481-11.644-35.732-22.277-54.717-31.725 1.704-13.128-0.19-25.496-3.619-34.13-3.264-8.192-7.909-13.943-13.052-16.137-5.184-2.211-8.427 0.248-9.6 1.398-3.356 3.362-3.379 8.723-3.405 17.622-0.022 5.078-0.053 11.094-0.783 17.41-19.344-8.05-39.253-15.038-59.776-20.665-0.85-13.234-5.08-25.018-10.1-32.803-4.75-7.396-10.385-12.12-15.843-13.288-4.4-0.937-7.033 0.886-8.198 2.035-3.857 3.875-2.688 9.962-0.95 19.144 0.95 4.972 2.06 10.917 2.574 17.25-12.244-2.494-24.656-4.635-37.235-6.227 9.51-81.053 44.985-159.593 107.021-221.643 59.361-59.344 133.84-94.234 211.142-105.506 0.598 5.273 1.08 10.51 1.85 15.765 1.097 7.449 2.389 14.845 3.804 22.205-6.144-0.566-11.876-1.735-16.702-2.689-9.232-1.875-15.318-3.08-19.224 0.814-1.16 1.15-2.964 3.732-2.058 8.14 2.407 11.642 21.856 24.68 45.433 26.503a504.212 504.212 0 0 0 19.674 59.963c-6.064 0.566-11.818 0.566-16.68 0.53-8.966-0.07-14.354-0.106-17.756 3.273-1.14 1.15-3.591 4.388-1.424 9.572 2.99 7.165 12.97 13.412 26.07 16.26 5.101 1.15 13.531 2.035 23.254 1.026 9.148 19.056 19.524 37.457 31 55.185-5.796 1.699-11.411 2.778-16.182 3.662-7.687 1.451-12.766 2.407-15.746 5.362-2.293 2.3-3.655 6.352-0.63 10.916 3.08 4.636 9.538 8.14 18.173 9.873 8.9 1.788 21.072 1.432 33.465-2.335 12.625 16.88 26.403 32.962 41.158 48.25-5.404 2.794-10.738 4.953-15.277 6.723-6.165 2.441-10.606 4.21-13.22 6.828-3.558 3.575-3.452 8.475 0.265 12.28 3.889 3.945 10.895 6.175 19.679 6.228 9.111 0.07 21.046-2.637 32.483-8.74a509.424 509.424 0 0 0 38.315 31.53c3.646 2.705 7.414 5.254 11.111 7.856a170.462 170.462 0 0 1-13.588 9.696c-4.334 2.777-7.767 4.97-10.014 7.219-2.388 2.388-3.467 4.918-3.22 7.571 0.16 1.751 1 4.3 4.122 6.441 9.802 6.725 32.855 2.423 50.903-12.313 18.082 11.04 36.767 20.788 55.877 29.37-2.142 2.477-4.284 4.813-6.264 6.794l-9.175 8.9c-3.724 3.716-7.29 7.768-6.395 12.492 0.371 1.928 1.644 4.598 5.485 6.262 10.331 4.496 29.316-2.902 43.207-16.809 1.538-1.538 2.724-3.256 4.068-4.9 19.86 7.377 40.145 13.43 60.735 18.206-2.964 5.166-6.219 9.802-8.99 13.712-5.458 7.696-9.067 12.738-7.067 17.906 0.707 1.859 2.468 4.263 6.546 5.148 8.157 1.857 20.107-3.646 30.415-13.96 4.83-4.813 8.933-10.333 12.19-16.26 1.353 0.229 2.69 0.495 4.032 0.707-13.494 71.8-47.853 140.397-103.286 195.83z m108.431-235.23c-0.406-0.071-0.803-0.179-1.229-0.248-1.114-12.58-5.13-23.728-9.943-31.212-4.742-7.308-10.315-11.96-15.678-13.11-4.456-0.974-7.094 0.866-8.279 2.033-3.858 3.876-2.707 9.943-0.973 19.18 0.92 4.794 1.983 10.492 2.503 16.614-18.25-4.246-36.28-9.412-53.903-15.888 1.293-12.58-0.529-24.294-3.82-32.556-3.255-8.067-7.839-13.712-12.891-15.871-5.226-2.282-8.52 0.213-9.668 1.38-3.38 3.38-3.396 8.759-3.45 17.657-0.018 4.866-0.07 10.617-0.707 16.65-17.022-7.66-33.724-16.082-49.851-25.83 3.626-12.034 4.097-23.852 2.423-32.539-1.637-8.581-5.069-14.986-9.599-18.047-4.619-3.131-8.721-1.788-11.058 0.549-2.956 2.955-3.963 7.997-5.467 15.64-0.94 4.708-2.07 10.228-3.822 15.907-3.291-2.319-6.794-4.299-10.05-6.723a471.473 471.473 0 0 1-33.811-27.779c10.827-20.33 10.537-42.976 2.388-51.133-1.963-1.983-4.104-2.972-6.44-2.972-1.504 0-3.786 0.442-5.962 2.619-2.601 2.601-4.396 6.989-6.901 13.075-1.84 4.53-4.05 9.855-6.953 15.287-13.004-13.5-25.169-27.69-36.378-42.552 14.332-17.73 18.594-40.235 12.173-49.807-2.122-3.203-4.671-4.07-6.457-4.246-2.682-0.266-5.266 0.831-7.697 3.273-2.247 2.229-4.415 5.556-7.185 9.802-2.707 4.106-6.104 8.865-9.922 13.554a460.434 460.434 0 0 1-27.478-48.798c1.583-1.363 3.309-2.513 4.796-4 13.871-13.836 21.056-32.077 16.71-42.358-1.636-3.928-4.317-5.183-6.251-5.573-4.867-0.956-8.972 2.653-13.466 7.13l-6.617 6.758c-2.558 2.567-5.45 5.184-8.51 7.767a463.187 463.187 0 0 1-17.508-53.115c5.769-3.22 11.174-7.22 15.87-11.924 10.201-10.173 15.474-21.534 13.776-29.584-0.848-4.194-3.256-5.963-5.114-6.706-5.114-2.034-10.245 1.504-17.992 6.847-3.964 2.78-8.672 6.015-13.963 8.954-1.238-6.6-2.441-13.2-3.414-19.87-0.654-4.546-1.088-9.112-1.61-13.641 101.29-4.034 203.83 32.077 280.938 109.167 81.008 81.016 117.013 190.096 108.44 296.238z" /></svg>