<?xml version="1.0" standalone="no"?><!DOCTYPE svg PUBLIC "-//W3C//DTD SVG 1.1//EN" "http://www.w3.org/Graphics/SVG/1.1/DTD/svg11.dtd"><svg class="icon" width="200px" height="200.00px" viewBox="0 0 1024 1024" version="1.1" xmlns="http://www.w3.org/2000/svg"><path fill="#333333" d="M931.238 504.588c-12.769-7.614-46.134-11.283-66.112-12.84 16.236-24.299-18.016-94.39-22.533-99.253-4.02-4.32-56.47-34.217-83.69-28.031 5.69-29.341-22.036-85.69-26.114-90.01-4.069-4.386-56.46-34.211-83.68-28.033 5.68-29.339-22.046-85.684-26.065-90.073-4.576-4.92-71.524-42.73-93.17-23.407-1.057-21.66-3.914-58.086-11.043-71.947-10.433-20.171-49.217-54.79-66.616 1.68L244.27 596.417l1.676-1.871 23.429 25.208 79.39-135.682 26.84 28.86-82.566 132.206 16.503 17.76 94.684-119.235 26.18 28.141-97.703 115.945 15.73 16.86 107.85-105.084 26.115 28.267-110.86 101.85 16.52 17.761 123.01-88.82 26.839 28.869-126.193 85.326 23.535 25.333-1.732 1.803 496.217-223.672c52.446-18.714 20.26-60.483 1.503-71.654z m-519.923-48.842l-28.23-30.366 31.46-53.779c7.26-11.935 21.273-17.035 31.25-11.277 10.05 5.82 12.272 20.167 5.013 32.115l-39.493 63.307z m61.375 65.956l-27.497-29.535 40.217-50.646c8.869-10.801 23.038-13.322 31.696-5.575 8.634 7.74 8.414 22.803-0.4 33.535l-44.016 52.221z m57.69 62.06l-27.506-29.534 48.597-47.355c9.986-9.48 23.984-9.663 31.178-0.42 7.21 9.306 4.865 24.545-5.242 34.085l-47.028 43.224z m112.08 32.99l-49.982 33.794-28.239-30.371 58.86-42.49c11.109-7.806 24.497-5.41 29.859 5.41 5.299 10.787 0.61 25.858-10.498 33.658z m-534.546 126.44c-0.219 0.246-0.504 0.49-0.716 0.727-54.066 58.148-55.515 150.862-3.287 207.038 52.27 56.232 138.407 54.673 192.476-3.535 0.219-0.246 0.447-0.49 0.667-0.79l81.68-87.793-189.247-203.547-81.573 87.9z m88.49 194.021c-12.328 13.263-40.224 4.799-62.27-18.906-22.036-23.693-29.897-53.7-17.569-66.963 12.32-13.269 30.638 5.454 52.668 29.218 22.101 23.706 39.558 43.392 27.172 56.651z m0 0" /></svg>