<?xml version="1.0" standalone="no"?><!DOCTYPE svg PUBLIC "-//W3C//DTD SVG 1.1//EN" "http://www.w3.org/Graphics/SVG/1.1/DTD/svg11.dtd"><svg class="icon" width="200px" height="200.00px" viewBox="0 0 1024 1024" version="1.1" xmlns="http://www.w3.org/2000/svg"><path fill="#333333" d="M382.145 235.458a82.4 82.4 0 1 0 168.637 0 82.4 82.4 0 1 0-168.637 0z m500.898 91.481c-11.154-12.689-30.494-14.019-43.285-2.865-3.377 2.967-5.935 6.447-7.675 10.233-5.32 1.944-12.177 4.298-18.112 6.344-26.912 9.21-62.216 21.284-93.835 42.262-33.461-17.09-90.151-48.504-108.98-65.797-6.242-5.73-14.223-8.391-22.103-8.084l-0.307-0.614c-1.33 0.307-2.558 0.716-3.888 1.023-1.74 0.307-3.48 0.819-5.117 1.433-63.546 17.19-118.496 33.052-147.762 44.82-7.777 2.66-15.144 6.344-21.591 9.618-15.145 7.675-33.461 18.215-51.267 28.448-14.837 8.493-35.405 20.465-47.685 26.4-3.479-3.07-8.902-8.288-16.474-16.986-11.461-12.996-24.252-29.573-36.736-45.639-27.015-34.791-45.946-58.532-63.137-71.527l11.358-12.382c2.252-2.456 2.763-6.037 1.433-8.493l114.813-108.878c9.823 8.903 22.819 13.2 36.838 13.2 21.284 0 45.127-9.72 64.978-28.549 34.894-33.052 44.104-81.556 20.466-108.263-10.028-11.359-24.559-17.09-40.727-17.09-21.284 0-45.127 9.722-64.978 28.55-33.052 31.415-42.978 76.747-23.74 104.17L200.82 256.948c-2.252-2.047-5.936-1.945-8.8 0.409l-20.773 17.396a37.72 37.72 0 0 0-8.29-0.614c-12.278 0.204-23.432 6.242-30.698 16.372-4.604 6.447-6.344 14.224-5.423 21.592l-1.023 0.818c-7.266 6.14-10.438 14.735-6.754 18.93l9.824 11.155c3.786 4.195 12.381 1.637 18.726-5.424v-0.102c4.81 1.535 9.823 1.944 14.735 1.126 12.28 11.46 33.666 38.987 47.276 56.587 33.768 43.592 56.69 71.937 78.793 83.602 2.558 1.74 5.32 3.07 8.288 4.094 3.684 1.125 7.265 1.74 10.95 1.74 10.437 0 21.795-4.708 37.35-12.792 12.892-6.651 28.344-15.451 44.614-24.866 16.577-9.619 42.467-24.456 56.383-30.8 1.228 0.306 2.456 0.511 3.786 0.716 0.307 0 0.512 0 0.717 0.102 5.525 9.721 10.232 19.545 12.688 28.038 9.005 31.722 11.768 138.962 16.373 154.823 0.307 0.92 1.126 1.637 2.353 2.251 0.103 44.718-8.186 101.92-16.27 140.906-14.326 15.043-51.778 54.746-88.411 95.78-27.424 30.698-49.22 56.28-64.57 76.03-28.55 36.736-36.02 53.108-31.824 70.3 3.377 14.018 15.963 23.432 29.778 23.432 2.353 0 4.81-0.307 7.47-0.92 12.893-3.173 21.898-14.122 23.228-26.708 3.684-7.06 19.852-32.336 89.742-110.003-3.479 8.8-4.4 17.19-3.172 25.377 2.354 15.042 15.452 25.89 30.29 25.89 1.534 0 3.171-0.103 4.911-0.512 14.94-2.354 25.684-15.145 25.89-29.88 2.762-4.912 16.167-23.843 73.47-65.388 36.123-26.196 71.017-47.685 71.324-47.89 8.493-5.32 14.019-14.428 14.53-24.456 0.205-3.786 5.014-93.12-8.084-174.265 2.252-0.512 3.582-0.82 3.582-0.82s-4.093-93.323-10.847-149.91c-1.023-8.8-2.865-17.805-5.116-26.708 39.6 23.331 81.35 43.694 81.965 44.104 4.195 1.944 8.698 2.967 13.2 2.967 6.856 0 13.712-2.353 19.442-6.856 26.81-21.693 64.16-34.484 91.38-43.796 11.051-3.786 20.67-7.061 28.447-10.54 6.447-2.865 23.843-10.54 28.652-28.652 3.172-11.46 0.205-23.331-7.88-32.643zM321.976 103.25c3.275-17.395 13.098-34.587 27.731-48.401 16.373-15.554 36.327-24.456 54.541-24.456 8.698 0 20.773 2.046 29.675 12.074 8.29 9.414 11.257 23.331 8.29 39.192-3.275 17.396-13.099 34.587-27.732 48.401-16.372 15.554-36.327 24.457-54.746 24.457-8.698 0-20.772-2.047-29.573-12.075-8.288-9.414-11.153-23.33-8.186-39.192z m8.391 331.749c1.228 1.637 2.251 3.48 3.07 5.423-0.819-1.944-1.842-3.684-3.07-5.423z m257.254 300.129c-15.861 10.233-42.978 28.038-70.095 48.197-6.754 5.014-13.098 9.823-18.931 14.428a4387.393 4387.393 0 0 1 17.6-18.521c3.889-3.991 6.55-9.005 7.777-14.531 0.307-1.637 8.8-39.703 14.531-86.468 3.684-29.982 5.321-56.485 5.014-79.509 12.075-1.842 24.559-4.093 36.634-6.446 8.288 54.848 8.084 115.017 7.47 142.85z m213.661-535.484l-2.25-49.834c-1.024 1.432-1.331 2.763-0.82 4.707-0.307 0.511-0.92 0.818-1.534 0.511-1.024-1.432-2.047-2.353-4.298-2.66-1.74 1.637-1.945 2.967-1.638 4.912-0.307 0.511-0.92 0.818-1.534 0.511-1.024-1.432-1.945-2.25-4.196-2.66-1.637 1.535-1.842 2.865-1.535 4.81-0.307 0.51-0.92 0.818-1.535 0.51-1.023-1.432-2.046-2.353-4.298-2.66-1.74 1.638-1.944 2.968-1.637 4.912-0.307 0.512-0.92 0.819-1.535 0.512-1.023-1.433-1.944-2.354-4.298-2.66-1.74 1.636-1.944 2.967-1.637 4.911-0.307 0.512-0.92 0.819-1.535 0.512-1.023-1.433-2.046-2.354-4.297-2.66-1.74 1.636-1.945 2.967-1.638 4.91-0.307 0.512-0.92 0.82-1.535 0.512-1.023-1.432-2.046-2.455-4.604-2.66-0.103 0-0.205-0.102-0.205-0.102l-0.307 0.102 30.903 39.499 15.963-5.935z m-13.405 9.005l0.41 1.023c1.637 4.195 6.344 6.242 10.54 4.707 4.195-1.637 6.241-6.344 4.707-10.54l-0.307-0.819c-0.205-0.511-0.82-0.818-1.433-0.613l-13.303 4.809c-0.614 0.205-0.818 0.819-0.614 1.433z" /></svg>