<?xml version="1.0" standalone="no"?><!DOCTYPE svg PUBLIC "-//W3C//DTD SVG 1.1//EN" "http://www.w3.org/Graphics/SVG/1.1/DTD/svg11.dtd"><svg class="icon" width="200px" height="189.45px" viewBox="0 0 1081 1024" version="1.1" xmlns="http://www.w3.org/2000/svg"><path fill="#333333" d="M841.181 426.04c3.886 1.422 7.14 2.338 9.193 2.496 0.916 0.063 1.801 0.695 2.433 1.516 0.632 0.885 0.916 1.99 0.821 2.97l-4.423 37.972-1.169 2.212c-7.771 3.854-60.497-8.467-85.106-16.775l-2.117-0.79c-60.181-21.766-118.057-64.857-163.295-117.677-4.581-5.37-8.972-11.026-13.364-16.68 12.921-42.46 49.788-46.945 77.747-43.533 31.433 47.544 65.425 85.675 112.18 114.708 3.602 2.274 45.365 25.81 67.1 33.581zM714.595 96.038a3.039 3.039 0 1 0 192.012 0 3.039 3.039 0 1 0-192.012 0z m-525.11 747.45c-4.107 0-7.898-2.212-9.983-5.75a11.444 11.444 0 0 1-0.032-11.468l186.578-326.306c3.16-5.529 10.173-7.456 15.701-4.265 5.497 3.159 7.424 10.172 4.265 15.67L209.26 820.456h331.835l168.476-299.833H407.275c-6.35 0-11.531-5.117-11.531-11.499 0-6.35 5.15-11.5 11.53-11.5h321.98c4.075 0 7.865 2.18 9.919 5.719 2.053 3.475 2.085 7.866 0.095 11.436L557.87 837.643c-2.022 3.601-5.908 5.876-10.015 5.876H189.485v-0.032zM0 822.383c0.032-111.327 90.256-201.552 201.584-201.552 111.328 0.032 201.552 90.256 201.584 201.552h-0.032c0 111.36-90.224 201.584-201.552 201.584C90.256 1024 0.032 933.744 0 822.384z m22.998 0c0.19 98.628 79.958 178.396 178.586 178.586 98.628-0.19 178.396-79.958 178.586-178.586h-0.032c-0.158-98.596-79.926-178.364-178.554-178.554-98.596 0.19-178.396 79.99-178.586 178.554z m654.035 0.032c0-111.328 90.225-201.552 201.552-201.584 111.36 0.032 201.584 90.256 201.584 201.584S989.945 1023.968 878.585 1024c-111.296-0.032-201.552-90.256-201.552-201.584z m23.03 0c0.19 98.628 79.957 178.396 178.554 178.554 98.628-0.158 178.396-79.958 178.585-178.554-0.19-98.628-79.926-178.396-178.585-178.554-98.597 0.158-178.396 79.926-178.554 178.554z m176.595 13.11c-0.126-0.284-89.403-188.758-140.613-292.377-16.016-32.507-28.969-57.654-32.475-63.151-1.422-1.232-3.096-3.538-3.633-8.466a11.554 11.554 0 0 1 4.201-8.91c1.485-1.2 2.37-1.516 3.033-1.8 1.264-0.474 1.77-0.537 2.18-0.632 0.79-0.126 1.074-0.126 1.358-0.19 0.537-0.03 0.885-0.03 1.327-0.062 0.79-0.032 1.77-0.032 3.033-0.032 20.218 0 115.53 2.148 139.444 2.685l45.302-52.978c4.106-4.834 11.372-5.402 16.206-1.264 4.833 4.107 5.402 11.404 1.264 16.206l-48.872 57.117a11.591 11.591 0 0 1-9.004 4.044c-0.126 0-87.54-2.022-127.881-2.654 5.244 10.015 12.226 23.789 20.313 40.153 16.775 33.834 38.541 78.694 60.118 123.49 43.122 89.593 85.455 178.965 85.455 178.965l0.031 0.031c2.686 5.75 0.253 12.605-5.497 15.322a11.287 11.287 0 0 1-4.896 1.106c-4.265 0-8.404-2.433-10.394-6.603zM375.273 511.305l-87.192-2.275c-6.35-0.158-11.373-5.433-11.183-11.783 0.158-6.35 5.433-11.373 11.783-11.215l87.192 2.275a11.465 11.465 0 0 1 11.183 11.815c-0.158 6.255-5.275 11.215-11.499 11.215-0.095-0.032-0.19-0.032-0.284-0.032z m103.303-98.691c-1.863-1.327-6.002-4.518-6.002-4.518-0.41-0.284-6.508-38.036 0-9.035l-15.48-22.556c0.285-0.095 0.569-0.253 0.727-0.506 0.474-0.663 0.284-1.642-0.41-2.085-4.234-2.59-11.5-3.443-16.207-4.549-11.373-2.653-22.683-5.15-33.992-7.992-12.542-3.16-25.368-4.802-37.815-8.372-8.688-2.496 14.216-37.562 6.065-41.132-2.243-0.98-24.388 13.142-26.062 14.437-4.328 3.254-15.07 18.86-17.565 23.6-6.54 12.351-14.09 30.264-15.701 44.1-3.412 29.444 3.823 59.329 23.314 81 25.337 28.212 59.424 45.903 89.878 67.67 21.956 15.7 44.701 30.074 60.055 52.946 14.184 21.135 19.27 46.029 19.018 71.175-0.506 50.42-14.88 98.407-33.045 145.004-1.548 3.98-3.349 7.772-5.055 11.657-0.22 0.474-0.157 1.011 0.095 1.485 0.285 0.411 0.758 0.727 1.264 0.727h59.265l1.232-0.695c14.817-22.398 25.02-48.335 34.75-73.197 18.734-47.735 33.93-96.796 27.801-148.732-3.096-26.094-12.352-50.799-25.652-73.355-17.407-29.475-49.567-85.454-75.409-108.01-7.518-6.571-7.013-3.318-15.069-9.067z m217.696-259.428z m30.454 36.362c-5.497-26.474-30.991-46.408-66.69-51.02-53.389-6.919-105.514 18.07-148.605 47.04-18.765 12.604-36.74 26.378-54.747 40.057-20.03 15.259-40.816 30.738-59.297 47.86-24.515 22.746-47.766 48.304-65.205 76.136l142.793 83.78c0.221-0.38 0.284-0.885 0.569-1.137 29.474-27.643 82.327-60.56 107.505-81.727 42.774-36.014 95.785-61.034 129.303-107.442 13.647-18.986 17.691-37.467 14.374-53.547z m-30.454-36.362z" /></svg>