<?xml version="1.0" standalone="no"?><!DOCTYPE svg PUBLIC "-//W3C//DTD SVG 1.1//EN" "http://www.w3.org/Graphics/SVG/1.1/DTD/svg11.dtd"><svg class="icon" width="200px" height="200.00px" viewBox="0 0 1024 1024" version="1.1" xmlns="http://www.w3.org/2000/svg"><path fill="#333333" d="M245.742 127.91a92.7 92.7 0 1 0 189.716 0 92.7 92.7 0 1 0-189.716 0z m703.61-56.178c-9.62-6.549-20.876-9.619-32.848-9.619-27.629 0-58.634 16.68-80.328 46.662a144.245 144.245 0 0 0-10.335 16.68c-0.819 1.33-1.637 3.07-2.456 5.014-6.14 13.098-9.721 26.605-10.847 39.6a513.92 513.92 0 0 1-3.99 15.862c-9.415 39.498-27.22 82.681-43.695 129.445l-19.749 26.912c-3.786 2.763-6.856 6.55-9.107 10.95-2.047 1.944-12.996 10.028-57.918 17.805-35.406 6.14-79.51 10.13-126.273 14.326-4.093 0.409-8.084 0.716-12.177 1.125-33.871-7.674-64.058-20.056-92.096-37.35h5.117c74.597 0 137.12-26.912 165.772-39.294 3.479-1.535 6.549-2.763 8.697-3.684 15.657-6.344 23.331-24.149 16.987-39.908-6.344-15.656-24.15-23.33-39.908-16.986-2.865 1.126-6.14 2.558-10.028 4.195-18.624 8.084-49.834 21.49-88.412 28.96-20.363 3.99-40.215 5.627-59.35 5.116-0.82-18.01-2.763-29.88-2.763-29.88s-138.144-37.76-174.47 31.722c-9.21 17.395-23.945 31.824-1.944 156.869 6.549 37.248-3.582 93.221-4.196 118.803L208.596 698.8c-39.6 20.364-81.044 51.062-115.426 85.547-51.88 51.983-63.341 86.774-63.853 106.83-0.512 20.16 8.903 36.839 25.991 45.946 4.605 2.456 9.517 3.582 14.429 3.582 10.949 0 21.591-5.935 27.22-16.168 6.446-12.177 3.99-26.708-5.22-36.02 3.377-10.028 16.066-31.824 45.025-60.885 32.643-32.745 72.346-61.397 108.98-78.588 6.958-3.275 12.484-9.108 15.349-16.27l66.718-164.033c0.716-1.842 1.33-3.786 1.637-5.73l143.158 83.397c4.4 47.378 23.433 106.729 52.699 162.702 20.772 39.704 63.034 108.673 113.175 124.125 2.967 0.92 6.037 1.33 9.005 1.33 13.2 0 25.275-8.493 29.47-21.489 4.912-16.168-4.195-33.359-20.363-38.373-15.963-4.912-46.764-36.429-76.849-93.938C551.5 726.531 533.591 668 533.08 627.887c-0.103-10.847-5.935-20.773-15.247-26.196L400.36 533.233c-1.74-12.79-2.15-48.708 25.173-125.761 32.335 18.521 67.332 31.824 105.5 40.112 2.047 0.512 4.298 0.717 6.447 0.717 0.92 0 1.842-0.103 2.967-0.205l16.884-1.535c57.1-5.116 103.864-9.721 140.6-16.782l16.577 11.256c4.707 3.172 13.814-2.865 19.954-12.893l5.628-9.107c26.298-9.108 43.387-21.592 51.471-39.806 5.219-11.87 2.456-25.173-6.037-33.87l0.818-1.331c40.215-36.531 75.723-73.165 110.924-99.156a590.831 590.831 0 0 1 13.61-10.233c17.6-9.21 34.178-24.354 46.457-44.104 28.14-44.922 23.945-97.212-7.982-118.803zM819.19 211.615c4.502 9.414 11.154 17.498 19.954 23.433 9.107 6.14 19.545 9.312 30.494 9.721-17.6 14.122-35.304 30.29-54.03 47.685-0.102-2.148-0.92-3.99-2.456-5.014l-12.995-8.8c-0.921-0.614-1.945-0.818-3.172-0.818 8.493-23.229 16.167-45.127 22.205-66.207z m120.85-31.926c-8.698 13.814-19.954 25.377-32.746 33.461-11.767 7.368-23.842 11.256-35.098 11.256-8.186 0-15.452-2.149-21.591-6.242-11.154-7.572-15.35-19.545-16.885-28.345-3.786-21.489 3.275-47.276 19.033-68.97 8.8-12.074 19.648-22.102 31.518-28.856 10.846-6.14 22-9.414 32.233-9.414 8.186 0 15.35 2.047 21.387 6.14 10.233 6.856 16.475 19.34 17.6 35.098 1.33 18.01-4.195 37.862-15.451 55.872zM591.61 519.829a36.4 36.4 0 1 0 74.496 0 36.4 36.4 0 1 0-74.496 0z" /></svg>