<?xml version="1.0" standalone="no"?><!DOCTYPE svg PUBLIC "-//W3C//DTD SVG 1.1//EN" "http://www.w3.org/Graphics/SVG/1.1/DTD/svg11.dtd"><svg class="icon" width="200px" height="200.00px" viewBox="0 0 1024 1024" version="1.1" xmlns="http://www.w3.org/2000/svg"><path fill="#333333" d="M945.528 609.801c20.386-50.268 30.721-103.378 30.721-157.85s-10.336-107.583-30.72-157.852c-21.113-52.062-52.119-98.76-92.156-138.797-40.036-40.038-86.735-71.043-138.797-92.155-50.269-20.384-103.377-30.72-157.85-30.72s-107.582 10.335-157.852 30.72c-52.062 21.112-98.76 52.117-138.797 92.155-33.808 33.808-61.346 72.838-81.851 116.007-19.768 41.615-32.564 86.106-38.035 132.236-9.884 83.348 5.147 168.226 42.417 241.86L34.078 774a31.331 31.331 0 0 0-1.664 1.55c-10.283 10.28-15.227 24.829-13.564 39.915 1.396 12.662 7.342 24.823 16.745 34.25L159.961 975.23l0.103 0.105c9.434 9.434 21.616 15.397 34.303 16.795 1.92 0.211 3.832 0.316 5.727 0.316 12.99 0 25.21-4.907 34.182-13.879 0.482-0.482 0.947-0.978 1.397-1.49l132.194-150.417c34.602 17.455 71.415 29.997 109.708 37.32a420.833 420.833 0 0 0 133.33 4.002c44.948-5.823 88.333-18.767 128.951-38.47 42.018-20.382 80.21-47.605 113.517-80.911 40.037-40.04 71.043-86.739 92.155-138.8zM381.835 762.232a322.889 322.889 0 0 1-4.386-2.516c-13.73-8.02-31.002-4.56-40.683 7.459a31.835 31.835 0 0 0-5.327 4.824L198.164 923.647 87.344 811.803l151.376-131.06a32.197 32.197 0 0 0 2.727-2.672c12.982-9.528 16.876-27.534 8.51-41.691-34.475-58.335-50.377-124.544-48.786-190.16l364.464 361.523c-62.874 1.669-126.49-13.167-183.8-45.51z m262.795 34.56c-0.331-0.362-0.671-0.72-1.024-1.07L214.97 370.545a32.105 32.105 0 0 0-3.39-2.915c15.175-62.272 46.617-120.725 93.359-167.465C372.193 132.91 461.613 95.87 556.726 95.87c95.112 0 184.532 37.04 251.786 104.294 67.254 67.255 104.293 156.673 104.293 251.786 0 95.114-37.039 184.533-104.294 251.787-46.318 46.318-103.257 77.642-163.88 93.055zM823.302 900.49a87.332 87.332 0 1 0 178.734 0 87.332 87.332 0 1 0-178.734 0z" /></svg>