<?xml version="1.0" standalone="no"?><!DOCTYPE svg PUBLIC "-//W3C//DTD SVG 1.1//EN" "http://www.w3.org/Graphics/SVG/1.1/DTD/svg11.dtd"><svg class="icon" width="200px" height="200.00px" viewBox="0 0 1024 1024" version="1.1" xmlns="http://www.w3.org/2000/svg"><path fill="#333333" d="M511.998327 618.558257c-84.776434 0-153.744398 68.97131-153.744398 153.744398 0 16.521257 13.392357 29.910268 29.910268 29.910268s29.910268-13.390684 29.910268-29.910268c0-51.787463 42.133053-93.923862 93.923862-93.923862 16.51791 0 29.910268-13.390684 29.910268-29.910268C541.910268 631.950614 528.51791 618.558257 511.998327 618.558257zM1004.214314 16.666826C999.174612 6.460256 988.77897 0 977.396135 0L689.694698 0c-9.426854 0-18.304896 4.444041-23.9503 11.993556L512.001673 217.530436 358.253929 11.993556C352.606852 4.444041 343.730483 0 334.303628 0L46.602192 0C35.279592 0 24.9308 6.393328 19.86098 16.516237c-5.06982 10.127929-3.990601 22.243628 2.790911 31.310743L327.547214 455.428835c-9.927144 13.019232-15.841934 29.25437-15.841934 46.856519l0 0.707767c0 31.461332 18.868768 58.579015 45.877692 70.681329-59.159618 46.096883-97.281991 117.991288-97.281991 198.624858 0 138.79261 112.911428 251.700692 251.699019 251.700692 138.789264 0 251.699019-112.911428 251.699019-251.700692 0-80.63859-38.124046-152.527976-97.280318-198.624858 27.007252-12.100641 45.877692-39.219997 45.877692-70.681329l0-0.707767c0-19.695332-7.405619-37.687339-19.563149-51.365815L1001.147324 48.09302C1008.066039 39.056023 1009.25569 26.871722 1004.214314 16.666826zM652.474185 502.993121c0 9.707953-7.899215 17.607169-17.607169 17.607169L389.129638 520.60029c-9.707953 0-17.607169-7.899215-17.607169-17.607169l0-0.707767c0-9.707953 7.899215-17.605495 17.607169-17.605495l245.737378 0c9.7113 0 17.607169 7.895869 17.607169 17.605495L652.474185 502.993121zM652.388851 405.205821l-25.385913-33.93768-77.650241-103.804156L704.671584 59.820535l212.152746 0L652.388851 405.205821zM106.329027 59.820535l212.994369 0 168.712917 225.536737c0.00502 0.006693 0.010039 0.015059 0.015059 0.021752l104.33289 139.480299L389.129638 424.859323l-9.741417 0L106.329027 59.820535zM703.87681 772.302655c0 105.80364-86.076517 191.880156-191.880156 191.880156-105.800293 0-191.878483-86.076517-191.878483-191.880156s86.076517-191.878483 191.878483-191.878483C617.800293 580.422498 703.87681 666.495668 703.87681 772.302655z" /></svg>