<?xml version="1.0" standalone="no"?><!DOCTYPE svg PUBLIC "-//W3C//DTD SVG 1.1//EN" "http://www.w3.org/Graphics/SVG/1.1/DTD/svg11.dtd"><svg class="icon" width="200px" height="200.00px" viewBox="0 0 1024 1024" version="1.1" xmlns="http://www.w3.org/2000/svg"><path fill="#333333" d="M876.731733 376.6784C815.9232 352.3584 785.066667 288.785067 785.066667 187.733333L785.066667 17.066667C785.066667 7.645867 777.437867 0 768 0L665.6 0C656.162133 0 648.533333 7.645867 648.533333 17.066667L648.533333 187.733333C648.533333 244.1216 590.148267 307.2 512 307.2 433.851733 307.2 375.466667 244.1216 375.466667 187.733333L375.466667 17.066667C375.466667 7.645867 367.837867 0 358.4 0L256 0C246.562133 0 238.933333 7.645867 238.933333 17.066667L238.933333 187.733333C238.933333 288.785067 208.0768 352.3584 147.268267 376.6784 140.782933 379.2896 136.533333 385.553067 136.533333 392.533333L136.533333 938.666667C136.533333 985.719467 174.813867 1024 221.866667 1024L802.133333 1024C849.186133 1024 887.466667 985.719467 887.466667 938.666667L887.466667 392.533333C887.466667 385.553067 883.217067 379.2896 876.731733 376.6784L876.731733 376.6784ZM802.133333 989.866667 221.866667 989.866667C193.6384 989.866667 170.666667 966.894933 170.666667 938.666667L170.666667 403.643733C237.7216 371.131733 273.066667 296.8064 273.066667 187.733333L273.066667 34.133333 341.333333 34.133333 341.333333 187.733333C341.333333 269.550933 421.085867 341.333333 512 341.333333 602.914133 341.333333 682.666667 269.550933 682.666667 187.733333L682.666667 34.133333 750.933333 34.133333 750.933333 187.733333C750.933333 296.8064 786.2784 371.131733 853.333333 403.643733L853.333333 921.6 221.866667 921.6C212.4288 921.6 204.8 929.245867 204.8 938.666667 204.8 948.087467 212.4288 955.733333 221.866667 955.733333L850.176 955.733333C843.1104 975.5648 824.354133 989.866667 802.133333 989.866667L802.133333 989.866667ZM409.6 716.8C409.6 773.2736 455.5264 819.2 512 819.2 568.4736 819.2 614.4 773.2736 614.4 716.8 614.4 679.799467 594.619733 647.424 565.128533 629.435733 584.6016 613.7856 597.333333 590.062933 597.333333 563.2 597.333333 516.1472 559.0528 477.866667 512 477.866667 464.9472 477.866667 426.666667 516.1472 426.666667 563.2 426.666667 590.062933 439.3984 613.7856 458.871467 629.435733 429.380267 647.424 409.6 679.799467 409.6 716.8L409.6 716.8ZM460.8 563.2C460.8 534.971733 483.771733 512 512 512 540.228267 512 563.2 534.971733 563.2 563.2 563.2 591.428267 540.228267 614.4 512 614.4 483.771733 614.4 460.8 591.428267 460.8 563.2L460.8 563.2ZM512 648.533333C549.649067 648.533333 580.266667 679.150933 580.266667 716.8 580.266667 754.449067 549.649067 785.066667 512 785.066667 474.350933 785.066667 443.733333 754.449067 443.733333 716.8 443.733333 679.150933 474.350933 648.533333 512 648.533333L512 648.533333ZM256 887.466667C265.437867 887.466667 273.066667 879.8208 273.066667 870.4L273.066667 409.6C273.066667 400.1792 265.437867 392.533333 256 392.533333 246.562133 392.533333 238.933333 400.1792 238.933333 409.6L238.933333 870.4C238.933333 879.8208 246.562133 887.466667 256 887.466667M768 887.466667C777.437867 887.466667 785.066667 879.8208 785.066667 870.4L785.066667 409.6C785.066667 400.1792 777.437867 392.533333 768 392.533333 758.562133 392.533333 750.933333 400.1792 750.933333 409.6L750.933333 870.4C750.933333 879.8208 758.562133 887.466667 768 887.466667" /></svg>