<?xml version="1.0" standalone="no"?><!DOCTYPE svg PUBLIC "-//W3C//DTD SVG 1.1//EN" "http://www.w3.org/Graphics/SVG/1.1/DTD/svg11.dtd"><svg t="1483860312334" class="icon" style="" viewBox="0 0 1024 1024" version="1.1" xmlns="http://www.w3.org/2000/svg" p-id="1484" xmlns:xlink="http://www.w3.org/1999/xlink" width="200" height="200"><defs><style type="text/css"></style></defs><path d="M558.122667 0A465.344 465.344 0 0 0 147.008 683.392l-106.666667 106.837333a137.216 137.216 0 0 0 191.744 196.266667l2.133334-2.133333v-0.576l106.666666-106.261334A465.642667 465.642667 0 1 0 558.122667 0z m-203.2 795.242667a39.637333 39.637333 0 0 0-48.618667 5.610666v-0.298666l-127.445333 127.786666-1.941334 1.664a58.325333 58.325333 0 0 1-98.133333-43.050666 59.306667 59.306667 0 0 1 16.768-41.386667l0.277333 0.298667 127.445334-127.808a38.954667 38.954667 0 0 0 4.266666-51.2 386.944 386.944 0 0 1-55.893333-198.805334l384.576 384.746667a383.573333 383.573333 0 0 1-201.258667-57.6z m263.018666 53.141333L175.808 405.738667a387.050667 387.050667 0 1 1 442.133333 442.645333zM656.768 426.666667a146.112 146.112 0 1 0 145.898667 146.261333A146.901333 146.901333 0 0 0 656.768 426.666667z m0 213.333333a67.114667 67.114667 0 0 1 0-134.208 67.114667 67.114667 0 0 1 0 134.208z" fill="" p-id="1485"></path></svg>