<?xml version="1.0" standalone="no"?><!DOCTYPE svg PUBLIC "-//W3C//DTD SVG 1.1//EN" "http://www.w3.org/Graphics/SVG/1.1/DTD/svg11.dtd"><svg t="1483525499082" class="icon" style="" viewBox="0 0 1024 1024" version="1.1" xmlns="http://www.w3.org/2000/svg" p-id="1432" xmlns:xlink="http://www.w3.org/1999/xlink" width="200" height="200"><defs><style type="text/css"></style></defs><path d="M510.079174 65.748447c-245.081888 0-443.765125 199.928449-443.765125 446.544219 0 246.622934 198.683237 446.544219 443.765125 446.544219 245.083935 0 443.767172-199.921285 443.767172-446.544219C953.846346 265.675872 755.163108 65.748447 510.079174 65.748447zM590.691456 907.502729c187.992309-218.470757-44.206637-269.364891-44.206637-269.364891 45.7171 94.279247-50.791888 186.081069-50.791888 186.081069 22.856503-47.143717-63.497791-99.244328-63.497791-99.244328-7.617811 79.400375-29.099956 120.950699-29.099956 120.950699-23.001819 24.39562-33.929141 40.173978-37.71144 50.330292 12.296563 4.108574 24.884781 7.967462 38.028678 11.247158 0 0-48.865945 17.851577-38.028678-11.247158-144.505087-48.298006-225.019128-150.712537-110.973005-236.238422 58.571389-43.921325 76.192438-161.269987 76.192438-161.269987 27.939478 27.291576 38.097242 74.440409 38.097242 74.440409 126.992513-37.21867 114.291726-272.92395 114.291726-272.92395 129.529395 71.954799 149.846969 168.71454 165.087708 173.675528 15.238692 4.959965 12.696693-62.025659 12.696693-62.025659 96.508988 94.281293 139.685112 198.48661 139.685112 198.48661C959.440996 825.837778 590.691456 907.502729 590.691456 907.502729z" p-id="1433"></path></svg>